<svg width="118" height="118" viewBox="0 0 118 118" fill="none" xmlns="http://www.w3.org/2000/svg">
<circle cx="59" cy="59" r="59" fill="#3475A3"/>
<path fill-rule="evenodd" clip-rule="evenodd" d="M106.162 94.4558C107.93 92.1081 109.527 89.6243 110.933 87.0227C110.688 87.0075 110.443 87 110.2 87C106.853 87 103.254 88.4251 99.3553 91.7753C94.7203 95.7584 89.7862 98 84.6 98C79.4138 98 74.4797 95.7584 69.8447 91.7753C65.9463 88.4251 62.3471 87 59 87C55.6529 87 52.0537 88.4251 48.1553 91.7753C43.5203 95.7584 38.5862 98 33.4 98C28.2138 98 23.2797 95.7584 18.6447 91.7753C14.7463 88.4251 11.1471 87 7.8 87C7.5569 87 7.31247 87.0075 7.0667 87.0227C8.47342 89.6243 10.0699 92.1081 11.8376 94.4558C15.5601 95.2991 19.139 97.2889 22.5553 100.225C26.4537 103.575 30.0528 105 33.4 105C36.7471 105 40.3463 103.575 44.2447 100.225C48.8797 96.2416 53.8138 94 59 94C64.1862 94 69.1203 96.2416 73.7553 100.225C77.6537 103.575 81.2528 105 84.6 105C87.9471 105 91.5463 103.575 95.4447 100.225C98.861 97.2889 102.44 95.2991 106.162 94.4558ZM110.2 81C111.356 81 112.499 81.1113 113.629 81.3283C114.434 79.3597 115.136 77.3378 115.728 75.2694C113.81 74.3985 111.97 74 110.2 74C106.853 74 103.254 75.4251 99.3553 78.7753C94.7203 82.7584 89.7862 85 84.6 85C79.4138 85 74.4797 82.7584 69.8447 78.7753C65.9463 75.4251 62.3471 74 59 74C55.6529 74 52.0537 75.4251 48.1553 78.7753C43.5203 82.7584 38.5862 85 33.4 85C28.2138 85 23.2797 82.7584 18.6447 78.7753C14.7463 75.4251 11.1471 74 7.8 74C6.03003 74 4.18958 74.3985 2.27169 75.2694C2.86379 77.3378 3.56595 79.3597 4.37143 81.3283C5.50143 81.1113 6.64446 81 7.8 81C12.9862 81 17.9203 83.2416 22.5553 87.2247C26.4537 90.5749 30.0528 92 33.4 92C36.7471 92 40.3463 90.5749 44.2447 87.2247C48.8797 83.2416 53.8138 81 59 81C64.1862 81 69.1203 83.2416 73.7553 87.2247C77.6537 90.5749 81.2528 92 84.6 92C87.9471 92 91.5463 90.5749 95.4447 87.2247C100.08 83.2416 105.014 81 110.2 81ZM0.902511 69.337C3.14688 68.4612 5.44751 68 7.8 68C12.9862 68 17.9203 70.2416 22.5553 74.2247C26.4537 77.5749 30.0528 79 33.4 79C36.7471 79 40.3463 77.5749 44.2447 74.2247C48.8797 70.2416 53.8138 68 59 68C64.1862 68 69.1203 70.2416 73.7553 74.2247C77.6537 77.5749 81.2528 79 84.6 79C87.9471 79 91.5463 77.5749 95.4447 74.2247C100.08 70.2416 105.014 68 110.2 68C112.552 68 114.853 68.4612 117.097 69.337C117.691 65.9807 118 62.5265 118 59C118 26.4152 91.5848 0 59 0C26.4152 0 0 26.4152 0 59C0 62.5265 0.309391 65.9807 0.902511 69.337ZM87.2642 110.802C86.3838 110.933 85.4957 111 84.6 111C79.4138 111 74.4797 108.758 69.8447 104.775C65.9463 101.425 62.3471 100 59 100C55.6529 100 52.0537 101.425 48.1553 104.775C43.5203 108.758 38.5862 111 33.4 111C32.5043 111 31.6162 110.933 30.7358 110.802C39.129 115.391 48.7598 118 59 118C69.2402 118 78.871 115.391 87.2642 110.802Z" fill="#FBC402"/>
<path d="M48.2104 75.2262L44.9435 77.0952C44.817 77.1689 44.6744 77.2104 44.5282 77.2161C44.3819 77.2219 44.2365 77.1917 44.1047 77.1282C43.9728 77.0647 43.8586 76.9699 43.772 76.8521C43.6854 76.7343 43.6291 76.597 43.6081 76.4524C43.3696 74.8929 44.4189 72.7262 46.2192 72.5714C47.0539 72.5 47.8805 72.5119 48.6992 72.6072C49.4464 72.6865 49.7445 72.3571 49.5935 71.6191C49.5617 71.4603 49.5617 71.2937 49.5935 71.1191C49.7127 70.5079 49.4623 70.1667 48.8423 70.0952C42.7457 69.4524 38.4215 72.2064 35.87 78.3571C35.8591 78.3893 35.8392 78.4176 35.8127 78.4389C35.7862 78.4602 35.7542 78.4734 35.7204 78.4772C35.6866 78.4809 35.6525 78.475 35.622 78.4601C35.5914 78.4451 35.5658 78.4218 35.5481 78.3929L33.3065 75.0595C33.2702 75.0056 33.2488 74.9438 33.2446 74.8808C33.2404 74.8179 33.2535 74.7562 33.2827 74.7024C36.4781 68.5833 41.8355 65.4603 49.355 65.3333C49.506 65.3333 49.6094 65.2659 49.665 65.131C49.9909 64.4167 50.0664 63.7103 49.8915 63.0119C49.8757 62.9484 49.8359 62.9167 49.7723 62.9167C42.4674 62.8214 36.7285 65.373 32.5554 70.5714C32.1659 71.0556 31.8599 71.0079 31.6373 70.4286C30.763 68.1587 30.2821 65.8691 30.1946 63.5595C30.1787 63.1627 30.3377 62.8571 30.6715 62.6429C32.7939 61.2698 34.9996 60.373 37.2889 59.9524C41.1639 59.25 46.41 58.9643 48.5919 55.2619C48.8224 54.8651 48.8383 54.4643 48.6396 54.0595C48.5601 53.8849 48.4369 53.7659 48.27 53.7024C47.9441 53.5675 47.65 53.6191 47.3877 53.8571C45.7423 55.3968 43.7989 56.2738 41.5573 56.4881C37.7499 56.8532 34.2644 57.7857 31.1008 59.2857C30.3615 59.6349 30.0595 59.4048 30.1946 58.5952L31.1246 53.1429C31.22 52.5635 31.5578 52.2421 32.1381 52.1786C36.8119 51.6548 40.9373 51.0476 44.2042 47.3571C44.6096 46.8889 44.8083 46.3452 44.8004 45.7262L44.7885 45.2738C44.7849 45.1977 44.7616 45.1238 44.7209 45.0593C44.6802 44.9949 44.6234 44.9421 44.5561 44.9061C44.4888 44.8701 44.4134 44.8521 44.337 44.854C44.2607 44.8559 44.1862 44.8774 44.1208 44.9167L39.5065 47.7619C39.0614 48.0397 38.7872 47.9246 38.6839 47.4167C38.2546 45.3929 37.2054 43.631 35.5362 42.131C35.0751 41.7183 35.1149 41.3571 35.6554 41.0476C38.4533 39.4683 41.4103 38.1389 44.5262 37.0595C44.6137 37.029 44.6941 36.981 44.7622 36.9184C44.8302 36.8558 44.8845 36.7801 44.9215 36.6961C44.9585 36.6121 44.9775 36.5217 44.9772 36.4305C44.9768 36.3394 44.9572 36.2495 44.9196 36.1667L44.7169 35.7381C44.6878 35.6775 44.6421 35.6264 44.5852 35.5906C44.5282 35.5548 44.4623 35.5358 44.395 35.5357C42.8212 35.5754 41.3228 35.8889 39.9 36.4762C39.28 36.7381 39.0177 36.5357 39.1131 35.869C39.3277 34.4643 38.8428 33.3135 37.6585 32.4167C35.9892 31.1389 36.184 30.3214 38.2427 29.9643C39.4986 29.7421 40.7585 29.2976 42.0223 28.631C42.1984 28.5362 42.353 28.4063 42.4766 28.2492C42.6001 28.0921 42.6898 27.9112 42.7402 27.718C42.7905 27.5247 42.8004 27.3231 42.7692 27.1258C42.738 26.9285 42.6664 26.7398 42.5589 26.5714C42.1853 26 41.7481 25.4643 41.2473 24.9643C39.8483 23.5675 40.1385 22.8651 42.1177 22.8571H45.2058C45.3207 22.8558 45.434 22.8311 45.5388 22.7847C45.6436 22.7382 45.7376 22.671 45.8148 22.5871C45.892 22.5033 45.9509 22.4047 45.9876 22.2976C46.0244 22.1904 46.0383 22.0769 46.0285 21.9643L45.7662 18.4881C45.7561 18.3449 45.7832 18.2016 45.8448 18.0719C45.9065 17.9423 46.0007 17.8308 46.1182 17.7481C46.2358 17.6655 46.3727 17.6146 46.5157 17.6003C46.6587 17.586 46.803 17.6089 46.9346 17.6667L51.0481 19.4643C51.5648 19.6944 51.994 19.5833 52.3358 19.131C52.8524 18.4484 53.1585 17.6786 53.2539 16.8214C53.5003 14.6548 54.3508 14.3849 55.8054 16.0119C56.5844 16.877 57.2958 17.7738 57.9396 18.7024C58.0314 18.8343 58.1541 18.9419 58.297 19.0158C58.4398 19.0897 58.5986 19.1277 58.7595 19.1266C58.9204 19.1254 59.0786 19.0851 59.2204 19.0091C59.3621 18.9331 59.4832 18.8237 59.5731 18.6905L61.3735 16.0476C62.375 14.5794 63.1222 14.6944 63.615 16.3929C63.8535 17.1944 64.1476 17.9643 64.4973 18.7024C64.5634 18.8453 64.659 18.9727 64.7779 19.0762C64.8967 19.1798 65.036 19.2571 65.1868 19.3032C65.3376 19.3492 65.4965 19.363 65.653 19.3436C65.8095 19.3242 65.9601 19.272 66.095 19.1905C67.3191 18.4444 68.6386 17.9405 70.0535 17.6786C70.1518 17.6607 70.2529 17.6648 70.3492 17.6904C70.4456 17.7159 70.5349 17.7624 70.6104 17.8264C70.6859 17.8904 70.7458 17.9702 70.7856 18.06C70.8254 18.1498 70.8441 18.2473 70.8404 18.3452C70.8006 19.2341 70.5463 20.0675 70.0773 20.8452C69.9066 21.1158 69.8272 21.437 69.8508 21.7619C70.0257 24.746 71.7148 26.3849 74.9181 26.6786C75.0794 26.693 75.2345 26.7478 75.3691 26.8378C75.5037 26.9278 75.6135 27.0502 75.6883 27.1937C75.7631 27.3371 75.8005 27.4971 75.7972 27.6588C75.7939 27.8205 75.7499 27.9788 75.6692 28.119C74.8108 29.5952 73.535 31.2143 73.4515 32.9524C73.1415 39.0397 75.4665 43.123 80.4265 45.2024C80.9035 45.4008 81.0903 45.754 80.9869 46.2619C79.9616 51.2262 73.9404 52.6071 71.3531 47.9643C69.0996 43.9405 66.7389 41.25 61.9815 40.4881C60.5269 40.2579 59.3465 39.5 58.4404 38.2143C58.3689 38.1132 58.2707 38.034 58.1567 37.9856C58.0427 37.9371 57.9175 37.9212 57.795 37.9397C57.6725 37.9583 57.5576 38.0105 57.4631 38.0905C57.3686 38.1705 57.2983 38.2752 57.26 38.3929C56.2744 41.3532 57.0374 43.8571 59.5492 45.9048C62.7089 48.4762 66.8819 51.7619 68.575 55.4881C71.9612 62.9564 69.9899 69.2976 62.6612 74.5119C57.2719 78.3452 51.5965 83.7143 54.2554 90.881C55.5669 94.4127 57.9992 96.3968 61.5523 96.8333C65.7731 97.3452 68.9804 94.4048 68.0266 89.9286C67.9274 89.4579 67.6879 89.0278 67.3391 88.6944C66.9903 88.361 66.5484 88.1397 66.0712 88.0595C64.3304 87.7659 63.468 88.3968 63.4839 89.9524C63.4918 90.4048 63.7064 90.7103 64.1277 90.869C64.7954 91.1071 65.471 90.996 66.1546 90.5357C66.3692 90.3929 66.4726 90.4524 66.4646 90.7143L66.4527 91.3333C66.4488 91.4195 66.4255 91.5045 66.3843 91.5826C66.3432 91.6607 66.2852 91.7299 66.2142 91.7857C63.3169 94.0119 59.6804 91.4881 60.9562 88.2976C62.8758 83.4524 68.1339 83.7143 71.2219 87.1905C74.7869 91.2024 73.5231 97 70.2562 101.024C69.2427 102.274 68.3962 104 66.5242 104.024C64.4894 104.048 62.6373 104.714 60.9681 106.024C60.6994 106.235 60.3653 106.346 60.0235 106.337C59.6817 106.328 59.3537 106.201 59.0962 105.976C57.3395 104.444 55.1933 103.845 52.6577 104.179C52.1887 104.234 51.8151 104.075 51.5369 103.702C49.665 101.179 50.1419 98.0357 45.7185 98.381C45.5864 98.3906 45.4539 98.3712 45.3304 98.3242C45.2068 98.2773 45.0954 98.2038 45.0042 98.1093C44.9129 98.0148 44.8441 97.9015 44.8026 97.7776C44.7612 97.6537 44.7482 97.5223 44.7646 97.3929C45.1819 94.1548 46.6365 90.2024 42.1177 88.9643C41.601 88.8214 41.5096 88.5357 41.8435 88.1071C43.3935 86.123 43.616 84.1468 42.5112 82.1786C42.2568 81.7183 42.376 81.3968 42.8689 81.2143C45.3012 80.2857 48.1746 78.4048 48.8542 75.7143C49.0212 75.0397 48.8065 74.877 48.2104 75.2262ZM58.7504 69.2857C58.5239 71.5 55.555 72.1786 53.7427 72.1191C53.5045 72.109 53.2697 72.1784 53.0754 72.3164C52.881 72.4543 52.7383 72.653 52.6696 72.881C51.6681 76.2937 50.7063 79.7818 49.7842 83.3452C49.0291 86.2976 49.1483 89.1786 50.1419 91.9881C52.3358 98.2024 56.7235 100.929 63.305 100.167C63.3845 100.159 63.4203 100.115 63.4123 100.036L63.4004 99.7381C63.3765 99.3492 63.1699 99.1667 62.7804 99.1905C59.4658 99.4048 56.6519 98.2937 54.3389 95.8571C50.5155 91.8254 49.7008 87.1071 51.8946 81.7024C53.6235 77.4524 56.795 74.5357 60.36 71.8452C65.4869 67.9881 68.3127 62.9048 64.7239 56.5952C61.7669 51.381 55.3165 48.5357 53.5519 42.7619C52.2324 38.4127 53.7506 34.869 58.1065 32.131C59.5771 31.2103 60.1017 31.5913 59.6804 33.2738C59.0246 35.881 61.6 37.4048 63.7819 37.7143C68.2531 38.3452 71.2577 43.1429 73.4277 46.7381C73.6639 47.1269 74.0332 47.4172 74.4672 47.5551C74.9013 47.693 75.3707 47.6692 75.7885 47.4881L76.2177 47.2976C76.8377 47.0357 76.9013 46.6746 76.4085 46.2143C72.2712 42.381 68.7658 35.6548 71.2458 30.1071C71.516 29.496 71.3451 29.0476 70.7331 28.7619C67.3589 27.2262 66.1904 23.1905 61.9815 23.6429C56.5287 24.2222 52.5146 26.996 49.9392 31.9643C46.2908 39.0119 47.7096 46.9286 51.1315 54.1667C51.5846 55.119 52.304 55.4008 53.2896 55.0119L56.7592 53.6548C57.5303 53.3452 57.88 53.6071 57.8085 54.4405C57.7926 54.5992 57.7568 54.7579 57.7012 54.9167C57.4389 55.631 56.9778 56.1746 56.3181 56.5476C55.4119 57.0556 54.4462 57.4087 53.4208 57.6071C52.9439 57.6945 52.6617 57.9762 52.5742 58.4524C52.4391 59.246 52.5742 59.996 52.9796 60.7024C53.1783 61.0437 53.4764 61.2103 53.8739 61.2024C55.2013 61.1706 56.4691 60.9087 57.6773 60.4167C58.0827 60.25 58.4245 60.3373 58.7027 60.6786C58.8696 60.8929 58.9372 61.1389 58.9054 61.4167C58.7265 63.2619 56.02 64.0952 54.5177 64.1429C53.8023 64.1667 53.4327 64.5357 53.4089 65.25L53.2658 68.5119C53.2611 68.645 53.2866 68.7775 53.3405 68.8991C53.3944 69.0208 53.4752 69.1283 53.5766 69.2135C53.678 69.2986 53.7973 69.3591 53.9254 69.3902C54.0534 69.4213 54.1867 69.4222 54.315 69.3929L57.9396 68.5595C58.5437 68.4167 58.814 68.6587 58.7504 69.2857Z" fill="#3475A3"/>
<path d="M57.9396 68.5595L54.315 69.3929C54.1867 69.4222 54.0534 69.4213 53.9254 69.3902C53.7973 69.3591 53.678 69.2986 53.5766 69.2135C53.4752 69.1283 53.3944 69.0208 53.3405 68.8991C53.2866 68.7775 53.2611 68.645 53.2658 68.5119L53.4089 65.25C53.4327 64.5357 53.8023 64.1667 54.5177 64.1429C56.02 64.0952 58.7265 63.2619 58.9054 61.4167C58.9372 61.1389 58.8696 60.8929 58.7027 60.6786C58.4245 60.3373 58.0827 60.25 57.6773 60.4167C56.4691 60.9087 55.2013 61.1706 53.8739 61.2024C53.4764 61.2103 53.1783 61.0436 52.9796 60.7024C52.5742 59.996 52.4391 59.246 52.5742 58.4524C52.6617 57.9762 52.9439 57.6944 53.4208 57.6071C54.4462 57.4087 55.4119 57.0555 56.3181 56.5476C56.9778 56.1746 57.4389 55.631 57.7012 54.9167C57.7568 54.7579 57.7926 54.5992 57.8085 54.4405C57.88 53.6071 57.5303 53.3452 56.7592 53.6548L53.2896 55.0119C52.304 55.4008 51.5846 55.119 51.1315 54.1667C47.7096 46.9286 46.2908 39.0119 49.9392 31.9643C52.5146 26.996 56.5287 24.2222 61.9815 23.6429C66.1904 23.1905 67.3588 27.2262 70.7331 28.7619C71.3451 29.0476 71.516 29.496 71.2458 30.1071C68.7658 35.6548 72.2712 42.381 76.4085 46.2143C76.9013 46.6746 76.8377 47.0357 76.2177 47.2976L75.7885 47.4881C75.3706 47.6692 74.9013 47.6929 74.4672 47.5551C74.0332 47.4172 73.6639 47.1269 73.4277 46.7381C71.2577 43.1429 68.2531 38.3452 63.7819 37.7143C61.6 37.4048 59.0246 35.8809 59.6804 33.2738C60.1017 31.5913 59.5771 31.2103 58.1065 32.1309C53.7506 34.869 52.2324 38.4127 53.5519 42.7619C55.3165 48.5357 61.7669 51.3809 64.7239 56.5952C68.3127 62.9048 65.4869 67.9881 60.36 71.8452C56.795 74.5357 53.6235 77.4524 51.8946 81.7024C49.7008 87.1071 50.5155 91.8254 54.3389 95.8571C56.6519 98.2936 59.4658 99.4048 62.7804 99.1905C63.1699 99.1667 63.3765 99.3492 63.4004 99.7381L63.4123 100.036C63.4203 100.115 63.3845 100.159 63.305 100.167C56.7235 100.929 52.3358 98.2024 50.1419 91.9881C49.1483 89.1786 49.0291 86.2976 49.7842 83.3452C50.7063 79.7817 51.6681 76.2936 52.6696 72.881C52.7383 72.653 52.881 72.4543 53.0754 72.3163C53.2697 72.1784 53.5045 72.109 53.7427 72.119C55.555 72.1786 58.5239 71.5 58.7504 69.2857C58.814 68.6587 58.5437 68.4167 57.9396 68.5595ZM68.2531 32.9762C68.2531 32.3921 68.0207 31.8319 67.607 31.4189C67.1934 31.0058 66.6323 30.7738 66.0473 30.7738C65.4623 30.7738 64.9013 31.0058 64.4876 31.4189C64.0739 31.8319 63.8415 32.3921 63.8415 32.9762C63.8415 33.5603 64.0739 34.1205 64.4876 34.5335C64.9013 34.9465 65.4623 35.1786 66.0473 35.1786C66.6323 35.1786 67.1934 34.9465 67.607 34.5335C68.0207 34.1205 68.2531 33.5603 68.2531 32.9762Z" fill="#FFE486"/>
<path d="M66.0473 35.1786C67.2655 35.1786 68.2531 34.1925 68.2531 32.9762C68.2531 31.7598 67.2655 30.7738 66.0473 30.7738C64.8291 30.7738 63.8416 31.7598 63.8416 32.9762C63.8416 34.1925 64.8291 35.1786 66.0473 35.1786Z" fill="#094D7E"/>
<path d="M77.0642 64.3929C77.7754 64.3929 78.3519 63.8172 78.3519 63.1071C78.3519 62.3971 77.7754 61.8214 77.0642 61.8214C76.3531 61.8214 75.7766 62.3971 75.7766 63.1071C75.7766 63.8172 76.3531 64.3929 77.0642 64.3929Z" fill="#94BDDB"/>
<path d="M87.8784 66.5714C88.9452 66.5714 89.81 65.708 89.81 64.6429C89.81 63.5777 88.9452 62.7143 87.8784 62.7143C86.8117 62.7143 85.9469 63.5777 85.9469 64.6429C85.9469 65.708 86.8117 66.5714 87.8784 66.5714Z" fill="#81AFCE"/>
<path d="M92.9338 72.7857C93.5989 72.7857 94.1381 72.2474 94.1381 71.5833C94.1381 70.9193 93.5989 70.381 92.9338 70.381C92.2688 70.381 91.7296 70.9193 91.7296 71.5833C91.7296 72.2474 92.2688 72.7857 92.9338 72.7857Z" fill="#4F97CA"/>
<path d="M78.3161 78.9881C79.5936 78.9881 80.6292 77.9541 80.6292 76.6786C80.6292 75.4031 79.5936 74.369 78.3161 74.369C77.0386 74.369 76.0031 75.4031 76.0031 76.6786C76.0031 77.9541 77.0386 78.9881 78.3161 78.9881Z" fill="#5E8EB1"/>
<path d="M87.6636 80.333C87.8075 81.0149 88.4048 81.4667 88.9976 81.3419C89.5903 81.2172 89.9542 80.5633 89.8103 79.8813C89.6664 79.1993 89.0691 78.7476 88.4763 78.8724C87.8835 78.9971 87.5197 79.651 87.6636 80.333Z" fill="#4185B5"/>
<path d="M84.4446 89.4762C85.3731 89.4762 86.1257 88.7247 86.1257 87.7976C86.1257 86.8706 85.3731 86.119 84.4446 86.119C83.5161 86.119 82.7634 86.8706 82.7634 87.7976C82.7634 88.7247 83.5161 89.4762 84.4446 89.4762Z" fill="#406E8F"/>
<path d="M76.9603 93.4992C76.7513 94.0949 77.0556 94.7434 77.6398 94.9477C78.224 95.1519 78.8669 94.8346 79.0759 94.2389C79.2848 93.6432 78.9806 92.9947 78.3964 92.7904C77.8122 92.5861 77.1692 92.9035 76.9603 93.4992Z" fill="#28648F"/>
<mask id="path-13-outside-1_9_135" maskUnits="userSpaceOnUse" x="3" y="63" width="113" height="26" fill="black">
<rect fill="white" x="3" y="63" width="113" height="26"/>
<path d="M13.4029 68.008C13.4029 69.08 13.0109 70.912 12.2269 73.504C11.4429 76.08 11.0509 77.728 11.0509 78.448C11.0509 79.152 11.3789 79.504 12.0349 79.504C12.7069 79.504 13.6189 79.016 14.7709 78.04C14.8189 77.224 14.9549 76.248 15.1789 75.112C15.8509 71.544 16.6669 68.96 17.6269 67.36C18.5869 65.76 19.7069 64.96 20.9869 64.96C21.7389 64.96 22.2989 65.184 22.6669 65.632C23.0509 66.064 23.2429 66.64 23.2429 67.36C23.2429 69.632 21.6909 72.688 18.5869 76.528C18.5389 77.152 18.5149 77.784 18.5149 78.424C18.5149 79.752 18.7389 80.416 19.1869 80.416C19.4589 80.416 19.6909 80.384 19.8829 80.32L20.2429 81.232C19.2509 81.936 18.2589 82.288 17.2669 82.288C15.8269 82.288 15.0029 81.448 14.7949 79.768C12.8749 81.448 11.2349 82.288 9.87491 82.288C9.05891 82.288 8.39491 82.04 7.88291 81.544C7.38691 81.032 7.13891 80.296 7.13891 79.336C7.13891 78.776 7.32291 77.872 7.69091 76.624C8.07491 75.36 8.29891 74.616 8.36291 74.392C5.75491 73.32 4.45091 71.832 4.45091 69.928C4.45091 68.616 5.05891 67.464 6.27491 66.472C7.49091 65.464 8.84291 64.96 10.3309 64.96C12.3789 64.96 13.4029 65.976 13.4029 68.008ZM8.81891 72.664C9.37891 70.712 9.65891 69.256 9.65891 68.296C9.65891 67.336 9.31491 66.856 8.62691 66.856C7.95491 66.856 7.33891 67.16 6.77891 67.768C6.21891 68.376 5.93891 69.048 5.93891 69.784C5.93891 70.504 6.21891 71.112 6.77891 71.608C7.33891 72.088 8.01891 72.44 8.81891 72.664ZM21.8029 67.312C21.8029 66.88 21.6429 66.664 21.3229 66.664C20.6189 66.664 19.8109 69.096 18.8989 73.96C19.6189 73.016 20.2829 71.888 20.8909 70.576C21.4989 69.248 21.8029 68.16 21.8029 67.312ZM23.3485 82.072H22.8925C22.8925 81.32 23.1165 79.88 23.5645 77.752C24.0285 75.624 24.2605 74.416 24.2605 74.128C24.2605 73.6 24.0365 73.04 23.5885 72.448L23.3725 72.16L23.3965 71.848C24.2605 71.608 25.6445 71.488 27.5485 71.488C27.7565 71.76 27.8685 72.256 27.8845 72.976C29.2765 71.904 30.4525 71.368 31.4125 71.368C31.9885 71.368 32.4445 71.568 32.7805 71.968C33.1325 72.368 33.3085 72.872 33.3085 73.48C33.3085 74.072 33.1245 75.104 32.7565 76.576C32.3885 78.048 32.2045 79.04 32.2045 79.552C32.2045 80.048 32.2685 80.296 32.3965 80.296C32.4925 80.296 32.8285 80.144 33.4045 79.84L33.6925 79.696L34.1245 80.536C33.9805 80.664 33.7885 80.824 33.5485 81.016C33.3085 81.208 32.8605 81.472 32.2045 81.808C31.5645 82.128 30.9885 82.288 30.4765 82.288C29.3085 82.288 28.7245 81.624 28.7245 80.296C28.7245 79.736 28.9005 78.704 29.2525 77.2C29.6205 75.696 29.8045 74.728 29.8045 74.296C29.8045 73.864 29.6685 73.648 29.3965 73.648C28.9325 73.648 28.3645 73.848 27.6925 74.248C27.6445 74.52 27.4845 75.24 27.2125 76.408C26.6525 78.92 26.3725 80.696 26.3725 81.736C25.8125 81.96 24.8045 82.072 23.3485 82.072ZM39.856 72.856C39.856 73.528 39.64 74.688 39.208 76.336C38.776 77.968 38.56 79.04 38.56 79.552C38.56 80.048 38.632 80.296 38.776 80.296C38.872 80.296 39.24 80.144 39.88 79.84L40.168 79.696L40.576 80.536C40.432 80.664 40.24 80.824 40 81.016C39.76 81.208 39.312 81.472 38.656 81.808C38 82.128 37.392 82.288 36.832 82.288C36.272 82.288 35.832 82.12 35.512 81.784C35.192 81.432 35.032 80.968 35.032 80.392C35.032 79.8 35.232 78.76 35.632 77.272C36.032 75.768 36.232 74.792 36.232 74.344C36.232 73.672 36.024 73.04 35.608 72.448L35.392 72.16L35.416 71.848C36.264 71.608 37.64 71.488 39.544 71.488C39.752 71.728 39.856 72.184 39.856 72.856ZM37.12 68.872C36.8 68.552 36.64 68.128 36.64 67.6C36.64 67.072 36.856 66.608 37.288 66.208C37.736 65.808 38.248 65.608 38.824 65.608C39.4 65.608 39.848 65.768 40.168 66.088C40.488 66.408 40.648 66.832 40.648 67.36C40.648 67.872 40.416 68.328 39.952 68.728C39.504 69.128 39 69.328 38.44 69.328C37.88 69.328 37.44 69.176 37.12 68.872ZM46.419 87.376C46.323 87.184 46.275 86.784 46.275 86.176C46.275 85.568 46.555 83.864 47.115 81.064C46.107 81.88 45.179 82.288 44.331 82.288C43.483 82.288 42.795 81.952 42.267 81.28C41.739 80.608 41.475 79.608 41.475 78.28C41.475 76.056 41.923 74.352 42.819 73.168C43.715 71.968 44.787 71.368 46.035 71.368C46.707 71.368 47.515 71.552 48.459 71.92C49.259 71.632 50.283 71.488 51.531 71.488C51.579 71.776 51.603 72.104 51.603 72.472C51.603 74.216 51.291 76.656 50.667 79.792C50.059 82.928 49.755 85.24 49.755 86.728C48.891 87.08 47.779 87.296 46.419 87.376ZM47.091 72.784C46.483 72.784 45.971 73.32 45.555 74.392C45.155 75.448 44.955 76.688 44.955 78.112C44.955 79.536 45.259 80.248 45.867 80.248C46.411 80.248 46.923 80.04 47.403 79.624C47.947 76.872 48.219 74.68 48.219 73.048C47.771 72.872 47.395 72.784 47.091 72.784ZM52.869 80.2C52.869 79.512 53.077 78.344 53.493 76.696C53.909 75.032 54.117 74.016 54.117 73.648C54.117 73.264 53.829 72.76 53.253 72.136L53.277 71.824C54.365 71.6 55.797 71.488 57.573 71.488C57.653 71.696 57.693 72.072 57.693 72.616C57.693 73.16 57.469 74.32 57.021 76.096C56.573 77.872 56.349 78.976 56.349 79.408C56.349 79.84 56.509 80.056 56.829 80.056C57.293 80.056 57.829 79.888 58.437 79.552C58.501 79.168 58.661 78.432 58.917 77.344C59.493 74.784 59.781 72.952 59.781 71.848C60.341 71.624 61.349 71.512 62.805 71.512H63.261C63.261 72.264 63.037 73.736 62.589 75.928C62.141 78.104 61.917 79.384 61.917 79.768C61.917 80.136 61.997 80.32 62.157 80.32C62.253 80.32 62.709 80.128 63.525 79.744L63.981 80.512C62.557 81.696 61.309 82.288 60.237 82.288C59.725 82.288 59.285 82.144 58.917 81.856C58.565 81.568 58.365 81.192 58.317 80.728C57.021 81.784 55.845 82.312 54.789 82.312C54.229 82.312 53.765 82.128 53.397 81.76C53.045 81.392 52.869 80.872 52.869 80.2ZM64.5576 77.848C64.5576 75.848 65.1576 74.272 66.3576 73.12C67.5736 71.952 68.9496 71.368 70.4856 71.368C71.4296 71.368 72.2056 71.6 72.8136 72.064C73.4216 72.528 73.7256 73.152 73.7256 73.936C73.7256 74.704 73.5256 75.352 73.1256 75.88C72.7416 76.408 72.2696 76.816 71.7096 77.104C70.5736 77.664 69.5336 78.016 68.5896 78.16L68.0136 78.232C68.1256 79.736 68.7416 80.488 69.8616 80.488C70.2456 80.488 70.6536 80.392 71.0856 80.2C71.5176 80.008 71.8536 79.816 72.0936 79.624L72.4536 79.336L73.0296 80.104C72.9016 80.28 72.6456 80.512 72.2616 80.8C71.8776 81.088 71.5176 81.328 71.1816 81.52C70.2536 82.032 69.2376 82.288 68.1336 82.288C67.0296 82.288 66.1576 81.896 65.5176 81.112C64.8776 80.328 64.5576 79.24 64.5576 77.848ZM67.9896 77.056C68.8056 76.912 69.4536 76.568 69.9336 76.024C70.4136 75.48 70.6536 74.776 70.6536 73.912C70.6536 73.048 70.3976 72.616 69.8856 72.616C69.2776 72.616 68.8056 73.136 68.4696 74.176C68.1496 75.2 67.9896 76.16 67.9896 77.056ZM85.2362 82.528C84.1002 82.528 83.2282 82.256 82.6202 81.712C82.0122 81.168 81.7082 80.472 81.7082 79.624C81.7082 78.76 82.0842 78.056 82.8362 77.512C83.6042 76.968 84.5002 76.584 85.5242 76.36C85.3482 76.072 84.7162 75.128 83.6282 73.528C82.9722 73.672 82.3402 73.744 81.7322 73.744C80.3882 73.744 79.3322 73.4 78.5642 72.712C77.8122 72.008 77.4362 71.056 77.4362 69.856C77.4362 69.344 77.5082 68.76 77.6522 68.104L77.7002 67.816C78.3562 67.832 78.8922 67.928 79.3082 68.104C79.0362 68.728 78.9002 69.376 78.9002 70.048C78.9002 70.72 79.1482 71.264 79.6442 71.68C80.1402 72.08 80.7482 72.28 81.4682 72.28C81.8042 72.28 82.2282 72.224 82.7402 72.112C82.0202 70.864 81.6602 69.776 81.6602 68.848C81.6602 67.648 82.1482 66.704 83.1242 66.016C84.1002 65.312 85.2042 64.96 86.4362 64.96C87.6842 64.96 88.6442 65.248 89.3162 65.824C90.0042 66.384 90.3482 67.088 90.3482 67.936C90.3482 68.768 90.0362 69.544 89.4122 70.264C88.7882 70.968 88.0922 71.544 87.3242 71.992C88.4762 73.464 89.2522 74.96 89.6522 76.48C90.9962 76.656 92.3242 76.984 93.6362 77.464C93.4122 78.264 93.2042 78.84 93.0122 79.192C92.6602 78.92 92.1802 78.648 91.5722 78.376C90.9642 78.104 90.3962 77.936 89.8682 77.872V77.896C89.8682 79.16 89.3802 80.248 88.4042 81.16C87.4442 82.072 86.3882 82.528 85.2362 82.528ZM86.3882 70.696C87.0122 70.408 87.5642 70.008 88.0442 69.496C88.5402 68.968 88.7882 68.472 88.7882 68.008C88.7882 67.544 88.6042 67.192 88.2362 66.952C87.8842 66.696 87.4282 66.568 86.8682 66.568C86.3082 66.568 85.8442 66.688 85.4762 66.928C85.1242 67.168 84.9482 67.488 84.9482 67.888C84.9482 68.144 85.0122 68.408 85.1402 68.68C85.2682 68.952 85.3722 69.168 85.4522 69.328C85.5322 69.488 85.6282 69.648 85.7402 69.808C85.8522 69.968 85.9402 70.096 86.0042 70.192C86.0842 70.288 86.2122 70.456 86.3882 70.696ZM84.6602 80.752C85.0922 80.752 85.4682 80.552 85.7882 80.152C86.1242 79.736 86.2922 79.312 86.2922 78.88C86.2922 78.432 86.2442 78.056 86.1482 77.752C85.5082 77.752 84.8762 77.928 84.2522 78.28C83.6282 78.632 83.3162 79.048 83.3162 79.528C83.3162 79.864 83.4362 80.152 83.6762 80.392C83.9162 80.632 84.2442 80.752 84.6602 80.752ZM93.1279 77.848C93.1279 75.848 93.7279 74.272 94.9279 73.12C96.1439 71.952 97.5199 71.368 99.0559 71.368C99.9999 71.368 100.776 71.6 101.384 72.064C101.992 72.528 102.296 73.152 102.296 73.936C102.296 74.704 102.096 75.352 101.696 75.88C101.312 76.408 100.84 76.816 100.28 77.104C99.1439 77.664 98.1039 78.016 97.1599 78.16L96.5839 78.232C96.6959 79.736 97.3119 80.488 98.4319 80.488C98.8159 80.488 99.2239 80.392 99.6559 80.2C100.088 80.008 100.424 79.816 100.664 79.624L101.024 79.336L101.6 80.104C101.472 80.28 101.216 80.512 100.832 80.8C100.448 81.088 100.088 81.328 99.7519 81.52C98.8239 82.032 97.8079 82.288 96.7039 82.288C95.5999 82.288 94.7279 81.896 94.0879 81.112C93.4479 80.328 93.1279 79.24 93.1279 77.848ZM96.5599 77.056C97.3759 76.912 98.0239 76.568 98.5039 76.024C98.9839 75.48 99.2239 74.776 99.2239 73.912C99.2239 73.048 98.9679 72.616 98.4559 72.616C97.8479 72.616 97.3759 73.136 97.0399 74.176C96.7199 75.2 96.5599 76.16 96.5599 77.056ZM109.962 72.064C109.994 72.032 110.082 71.824 110.226 71.44C110.978 71.44 111.986 71.664 113.25 72.112C112.85 73.44 112.53 74.832 112.29 76.288C112.05 77.728 111.93 78.76 111.93 79.384C111.93 79.992 111.994 80.296 112.122 80.296C112.218 80.296 112.57 80.144 113.178 79.84L113.466 79.696L113.898 80.536C113.754 80.664 113.562 80.824 113.322 81.016C113.098 81.208 112.666 81.472 112.026 81.808C111.386 82.128 110.81 82.288 110.298 82.288C109.306 82.288 108.73 81.84 108.57 80.944C107.546 81.84 106.618 82.288 105.786 82.288C104.97 82.288 104.274 81.968 103.698 81.328C103.138 80.688 102.858 79.68 102.858 78.304C102.858 76.16 103.298 74.472 104.178 73.24C105.058 71.992 106.122 71.368 107.37 71.368C108.266 71.368 109.13 71.6 109.962 72.064ZM107.226 80.248C107.61 80.248 108.042 80.096 108.522 79.792C108.634 77.536 109.01 75.304 109.65 73.096C109.17 72.888 108.762 72.784 108.426 72.784C107.85 72.784 107.354 73.352 106.938 74.488C106.538 75.608 106.338 76.848 106.338 78.208C106.338 79.568 106.634 80.248 107.226 80.248Z"/>
</mask>
<path d="M13.4029 68.008C13.4029 69.08 13.0109 70.912 12.2269 73.504C11.4429 76.08 11.0509 77.728 11.0509 78.448C11.0509 79.152 11.3789 79.504 12.0349 79.504C12.7069 79.504 13.6189 79.016 14.7709 78.04C14.8189 77.224 14.9549 76.248 15.1789 75.112C15.8509 71.544 16.6669 68.96 17.6269 67.36C18.5869 65.76 19.7069 64.96 20.9869 64.96C21.7389 64.96 22.2989 65.184 22.6669 65.632C23.0509 66.064 23.2429 66.64 23.2429 67.36C23.2429 69.632 21.6909 72.688 18.5869 76.528C18.5389 77.152 18.5149 77.784 18.5149 78.424C18.5149 79.752 18.7389 80.416 19.1869 80.416C19.4589 80.416 19.6909 80.384 19.8829 80.32L20.2429 81.232C19.2509 81.936 18.2589 82.288 17.2669 82.288C15.8269 82.288 15.0029 81.448 14.7949 79.768C12.8749 81.448 11.2349 82.288 9.87491 82.288C9.05891 82.288 8.39491 82.04 7.88291 81.544C7.38691 81.032 7.13891 80.296 7.13891 79.336C7.13891 78.776 7.32291 77.872 7.69091 76.624C8.07491 75.36 8.29891 74.616 8.36291 74.392C5.75491 73.32 4.45091 71.832 4.45091 69.928C4.45091 68.616 5.05891 67.464 6.27491 66.472C7.49091 65.464 8.84291 64.96 10.3309 64.96C12.3789 64.96 13.4029 65.976 13.4029 68.008ZM8.81891 72.664C9.37891 70.712 9.65891 69.256 9.65891 68.296C9.65891 67.336 9.31491 66.856 8.62691 66.856C7.95491 66.856 7.33891 67.16 6.77891 67.768C6.21891 68.376 5.93891 69.048 5.93891 69.784C5.93891 70.504 6.21891 71.112 6.77891 71.608C7.33891 72.088 8.01891 72.44 8.81891 72.664ZM21.8029 67.312C21.8029 66.88 21.6429 66.664 21.3229 66.664C20.6189 66.664 19.8109 69.096 18.8989 73.96C19.6189 73.016 20.2829 71.888 20.8909 70.576C21.4989 69.248 21.8029 68.16 21.8029 67.312ZM23.3485 82.072H22.8925C22.8925 81.32 23.1165 79.88 23.5645 77.752C24.0285 75.624 24.2605 74.416 24.2605 74.128C24.2605 73.6 24.0365 73.04 23.5885 72.448L23.3725 72.16L23.3965 71.848C24.2605 71.608 25.6445 71.488 27.5485 71.488C27.7565 71.76 27.8685 72.256 27.8845 72.976C29.2765 71.904 30.4525 71.368 31.4125 71.368C31.9885 71.368 32.4445 71.568 32.7805 71.968C33.1325 72.368 33.3085 72.872 33.3085 73.48C33.3085 74.072 33.1245 75.104 32.7565 76.576C32.3885 78.048 32.2045 79.04 32.2045 79.552C32.2045 80.048 32.2685 80.296 32.3965 80.296C32.4925 80.296 32.8285 80.144 33.4045 79.84L33.6925 79.696L34.1245 80.536C33.9805 80.664 33.7885 80.824 33.5485 81.016C33.3085 81.208 32.8605 81.472 32.2045 81.808C31.5645 82.128 30.9885 82.288 30.4765 82.288C29.3085 82.288 28.7245 81.624 28.7245 80.296C28.7245 79.736 28.9005 78.704 29.2525 77.2C29.6205 75.696 29.8045 74.728 29.8045 74.296C29.8045 73.864 29.6685 73.648 29.3965 73.648C28.9325 73.648 28.3645 73.848 27.6925 74.248C27.6445 74.52 27.4845 75.24 27.2125 76.408C26.6525 78.92 26.3725 80.696 26.3725 81.736C25.8125 81.96 24.8045 82.072 23.3485 82.072ZM39.856 72.856C39.856 73.528 39.64 74.688 39.208 76.336C38.776 77.968 38.56 79.04 38.56 79.552C38.56 80.048 38.632 80.296 38.776 80.296C38.872 80.296 39.24 80.144 39.88 79.84L40.168 79.696L40.576 80.536C40.432 80.664 40.24 80.824 40 81.016C39.76 81.208 39.312 81.472 38.656 81.808C38 82.128 37.392 82.288 36.832 82.288C36.272 82.288 35.832 82.12 35.512 81.784C35.192 81.432 35.032 80.968 35.032 80.392C35.032 79.8 35.232 78.76 35.632 77.272C36.032 75.768 36.232 74.792 36.232 74.344C36.232 73.672 36.024 73.04 35.608 72.448L35.392 72.16L35.416 71.848C36.264 71.608 37.64 71.488 39.544 71.488C39.752 71.728 39.856 72.184 39.856 72.856ZM37.12 68.872C36.8 68.552 36.64 68.128 36.64 67.6C36.64 67.072 36.856 66.608 37.288 66.208C37.736 65.808 38.248 65.608 38.824 65.608C39.4 65.608 39.848 65.768 40.168 66.088C40.488 66.408 40.648 66.832 40.648 67.36C40.648 67.872 40.416 68.328 39.952 68.728C39.504 69.128 39 69.328 38.44 69.328C37.88 69.328 37.44 69.176 37.12 68.872ZM46.419 87.376C46.323 87.184 46.275 86.784 46.275 86.176C46.275 85.568 46.555 83.864 47.115 81.064C46.107 81.88 45.179 82.288 44.331 82.288C43.483 82.288 42.795 81.952 42.267 81.28C41.739 80.608 41.475 79.608 41.475 78.28C41.475 76.056 41.923 74.352 42.819 73.168C43.715 71.968 44.787 71.368 46.035 71.368C46.707 71.368 47.515 71.552 48.459 71.92C49.259 71.632 50.283 71.488 51.531 71.488C51.579 71.776 51.603 72.104 51.603 72.472C51.603 74.216 51.291 76.656 50.667 79.792C50.059 82.928 49.755 85.24 49.755 86.728C48.891 87.08 47.779 87.296 46.419 87.376ZM47.091 72.784C46.483 72.784 45.971 73.32 45.555 74.392C45.155 75.448 44.955 76.688 44.955 78.112C44.955 79.536 45.259 80.248 45.867 80.248C46.411 80.248 46.923 80.04 47.403 79.624C47.947 76.872 48.219 74.68 48.219 73.048C47.771 72.872 47.395 72.784 47.091 72.784ZM52.869 80.2C52.869 79.512 53.077 78.344 53.493 76.696C53.909 75.032 54.117 74.016 54.117 73.648C54.117 73.264 53.829 72.76 53.253 72.136L53.277 71.824C54.365 71.6 55.797 71.488 57.573 71.488C57.653 71.696 57.693 72.072 57.693 72.616C57.693 73.16 57.469 74.32 57.021 76.096C56.573 77.872 56.349 78.976 56.349 79.408C56.349 79.84 56.509 80.056 56.829 80.056C57.293 80.056 57.829 79.888 58.437 79.552C58.501 79.168 58.661 78.432 58.917 77.344C59.493 74.784 59.781 72.952 59.781 71.848C60.341 71.624 61.349 71.512 62.805 71.512H63.261C63.261 72.264 63.037 73.736 62.589 75.928C62.141 78.104 61.917 79.384 61.917 79.768C61.917 80.136 61.997 80.32 62.157 80.32C62.253 80.32 62.709 80.128 63.525 79.744L63.981 80.512C62.557 81.696 61.309 82.288 60.237 82.288C59.725 82.288 59.285 82.144 58.917 81.856C58.565 81.568 58.365 81.192 58.317 80.728C57.021 81.784 55.845 82.312 54.789 82.312C54.229 82.312 53.765 82.128 53.397 81.76C53.045 81.392 52.869 80.872 52.869 80.2ZM64.5576 77.848C64.5576 75.848 65.1576 74.272 66.3576 73.12C67.5736 71.952 68.9496 71.368 70.4856 71.368C71.4296 71.368 72.2056 71.6 72.8136 72.064C73.4216 72.528 73.7256 73.152 73.7256 73.936C73.7256 74.704 73.5256 75.352 73.1256 75.88C72.7416 76.408 72.2696 76.816 71.7096 77.104C70.5736 77.664 69.5336 78.016 68.5896 78.16L68.0136 78.232C68.1256 79.736 68.7416 80.488 69.8616 80.488C70.2456 80.488 70.6536 80.392 71.0856 80.2C71.5176 80.008 71.8536 79.816 72.0936 79.624L72.4536 79.336L73.0296 80.104C72.9016 80.28 72.6456 80.512 72.2616 80.8C71.8776 81.088 71.5176 81.328 71.1816 81.52C70.2536 82.032 69.2376 82.288 68.1336 82.288C67.0296 82.288 66.1576 81.896 65.5176 81.112C64.8776 80.328 64.5576 79.24 64.5576 77.848ZM67.9896 77.056C68.8056 76.912 69.4536 76.568 69.9336 76.024C70.4136 75.48 70.6536 74.776 70.6536 73.912C70.6536 73.048 70.3976 72.616 69.8856 72.616C69.2776 72.616 68.8056 73.136 68.4696 74.176C68.1496 75.2 67.9896 76.16 67.9896 77.056ZM85.2362 82.528C84.1002 82.528 83.2282 82.256 82.6202 81.712C82.0122 81.168 81.7082 80.472 81.7082 79.624C81.7082 78.76 82.0842 78.056 82.8362 77.512C83.6042 76.968 84.5002 76.584 85.5242 76.36C85.3482 76.072 84.7162 75.128 83.6282 73.528C82.9722 73.672 82.3402 73.744 81.7322 73.744C80.3882 73.744 79.3322 73.4 78.5642 72.712C77.8122 72.008 77.4362 71.056 77.4362 69.856C77.4362 69.344 77.5082 68.76 77.6522 68.104L77.7002 67.816C78.3562 67.832 78.8922 67.928 79.3082 68.104C79.0362 68.728 78.9002 69.376 78.9002 70.048C78.9002 70.72 79.1482 71.264 79.6442 71.68C80.1402 72.08 80.7482 72.28 81.4682 72.28C81.8042 72.28 82.2282 72.224 82.7402 72.112C82.0202 70.864 81.6602 69.776 81.6602 68.848C81.6602 67.648 82.1482 66.704 83.1242 66.016C84.1002 65.312 85.2042 64.96 86.4362 64.96C87.6842 64.96 88.6442 65.248 89.3162 65.824C90.0042 66.384 90.3482 67.088 90.3482 67.936C90.3482 68.768 90.0362 69.544 89.4122 70.264C88.7882 70.968 88.0922 71.544 87.3242 71.992C88.4762 73.464 89.2522 74.96 89.6522 76.48C90.9962 76.656 92.3242 76.984 93.6362 77.464C93.4122 78.264 93.2042 78.84 93.0122 79.192C92.6602 78.92 92.1802 78.648 91.5722 78.376C90.9642 78.104 90.3962 77.936 89.8682 77.872V77.896C89.8682 79.16 89.3802 80.248 88.4042 81.16C87.4442 82.072 86.3882 82.528 85.2362 82.528ZM86.3882 70.696C87.0122 70.408 87.5642 70.008 88.0442 69.496C88.5402 68.968 88.7882 68.472 88.7882 68.008C88.7882 67.544 88.6042 67.192 88.2362 66.952C87.8842 66.696 87.4282 66.568 86.8682 66.568C86.3082 66.568 85.8442 66.688 85.4762 66.928C85.1242 67.168 84.9482 67.488 84.9482 67.888C84.9482 68.144 85.0122 68.408 85.1402 68.68C85.2682 68.952 85.3722 69.168 85.4522 69.328C85.5322 69.488 85.6282 69.648 85.7402 69.808C85.8522 69.968 85.9402 70.096 86.0042 70.192C86.0842 70.288 86.2122 70.456 86.3882 70.696ZM84.6602 80.752C85.0922 80.752 85.4682 80.552 85.7882 80.152C86.1242 79.736 86.2922 79.312 86.2922 78.88C86.2922 78.432 86.2442 78.056 86.1482 77.752C85.5082 77.752 84.8762 77.928 84.2522 78.28C83.6282 78.632 83.3162 79.048 83.3162 79.528C83.3162 79.864 83.4362 80.152 83.6762 80.392C83.9162 80.632 84.2442 80.752 84.6602 80.752ZM93.1279 77.848C93.1279 75.848 93.7279 74.272 94.9279 73.12C96.1439 71.952 97.5199 71.368 99.0559 71.368C99.9999 71.368 100.776 71.6 101.384 72.064C101.992 72.528 102.296 73.152 102.296 73.936C102.296 74.704 102.096 75.352 101.696 75.88C101.312 76.408 100.84 76.816 100.28 77.104C99.1439 77.664 98.1039 78.016 97.1599 78.16L96.5839 78.232C96.6959 79.736 97.3119 80.488 98.4319 80.488C98.8159 80.488 99.2239 80.392 99.6559 80.2C100.088 80.008 100.424 79.816 100.664 79.624L101.024 79.336L101.6 80.104C101.472 80.28 101.216 80.512 100.832 80.8C100.448 81.088 100.088 81.328 99.7519 81.52C98.8239 82.032 97.8079 82.288 96.7039 82.288C95.5999 82.288 94.7279 81.896 94.0879 81.112C93.4479 80.328 93.1279 79.24 93.1279 77.848ZM96.5599 77.056C97.3759 76.912 98.0239 76.568 98.5039 76.024C98.9839 75.48 99.2239 74.776 99.2239 73.912C99.2239 73.048 98.9679 72.616 98.4559 72.616C97.8479 72.616 97.3759 73.136 97.0399 74.176C96.7199 75.2 96.5599 76.16 96.5599 77.056ZM109.962 72.064C109.994 72.032 110.082 71.824 110.226 71.44C110.978 71.44 111.986 71.664 113.25 72.112C112.85 73.44 112.53 74.832 112.29 76.288C112.05 77.728 111.93 78.76 111.93 79.384C111.93 79.992 111.994 80.296 112.122 80.296C112.218 80.296 112.57 80.144 113.178 79.84L113.466 79.696L113.898 80.536C113.754 80.664 113.562 80.824 113.322 81.016C113.098 81.208 112.666 81.472 112.026 81.808C111.386 82.128 110.81 82.288 110.298 82.288C109.306 82.288 108.73 81.84 108.57 80.944C107.546 81.84 106.618 82.288 105.786 82.288C104.97 82.288 104.274 81.968 103.698 81.328C103.138 80.688 102.858 79.68 102.858 78.304C102.858 76.16 103.298 74.472 104.178 73.24C105.058 71.992 106.122 71.368 107.37 71.368C108.266 71.368 109.13 71.6 109.962 72.064ZM107.226 80.248C107.61 80.248 108.042 80.096 108.522 79.792C108.634 77.536 109.01 75.304 109.65 73.096C109.17 72.888 108.762 72.784 108.426 72.784C107.85 72.784 107.354 73.352 106.938 74.488C106.538 75.608 106.338 76.848 106.338 78.208C106.338 79.568 106.634 80.248 107.226 80.248Z" fill="#043050"/>
<path d="M12.2269 73.504L13.1836 73.7952L13.1841 73.7935L12.2269 73.504ZM14.7709 78.04L15.4173 78.803L15.744 78.5262L15.7692 78.0987L14.7709 78.04ZM15.1789 75.112L16.1601 75.3055L16.1616 75.2971L15.1789 75.112ZM17.6269 67.36L18.4844 67.8745V67.8745L17.6269 67.36ZM22.6669 65.632L21.8942 66.2667L21.9065 66.2818L21.9195 66.2964L22.6669 65.632ZM18.5869 76.528L17.8092 75.8994L17.6137 76.1412L17.5899 76.4513L18.5869 76.528ZM19.8829 80.32L20.8131 79.9528L20.4653 79.0718L19.5667 79.3713L19.8829 80.32ZM20.2429 81.232L20.8217 82.0475L21.4608 81.5939L21.1731 80.8648L20.2429 81.232ZM14.7949 79.768L15.7873 79.6451L15.5556 77.7736L14.1364 79.0154L14.7949 79.768ZM7.88291 81.544L7.16467 82.2398L7.17571 82.2512L7.18711 82.2622L7.88291 81.544ZM7.69091 76.624L6.73405 76.3333L6.73174 76.3412L7.69091 76.624ZM8.36291 74.392L9.32443 74.6667L9.57006 73.807L8.74309 73.4671L8.36291 74.392ZM6.27491 66.472L6.90705 67.2469L6.9131 67.2419L6.27491 66.472ZM8.81891 72.664L8.54928 73.627L9.50612 73.8949L9.78013 72.9398L8.81891 72.664ZM6.77891 67.768L6.04336 67.0905L6.04336 67.0905L6.77891 67.768ZM6.77891 71.608L6.11587 72.3566L6.12195 72.362L6.12812 72.3673L6.77891 71.608ZM18.8989 73.96L17.916 73.7757L19.694 74.5664L18.8989 73.96ZM20.8909 70.576L21.7982 70.9965L21.8001 70.9923L20.8909 70.576ZM12.4029 68.008C12.4029 68.9144 12.0557 70.6161 11.2697 73.2145L13.1841 73.7935C13.9662 71.2079 14.4029 69.2456 14.4029 68.008H12.4029ZM11.2702 73.2128C10.8753 74.5106 10.5748 75.5884 10.3721 76.4406C10.1757 77.2662 10.0509 77.9594 10.0509 78.448H12.0509C12.0509 78.2166 12.1222 77.7258 12.3178 76.9034C12.5071 76.1076 12.7945 75.0734 13.1836 73.7952L11.2702 73.2128ZM10.0509 78.448C10.0509 78.9373 10.1635 79.4905 10.5653 79.9217C10.9795 80.3663 11.534 80.504 12.0349 80.504V78.504C11.9576 78.504 11.9325 78.4933 11.9412 78.4964C11.9464 78.4983 11.9594 78.5036 11.9767 78.5147C11.9942 78.526 12.0122 78.5407 12.0285 78.5583C12.0447 78.5757 12.0556 78.5918 12.0621 78.6035C12.0684 78.6148 12.0692 78.6192 12.0674 78.6134C12.0655 78.6073 12.0613 78.5915 12.0575 78.5635C12.0538 78.5356 12.0509 78.4976 12.0509 78.448H10.0509ZM12.0349 80.504C12.6008 80.504 13.1648 80.3032 13.6947 80.0197C14.2342 79.731 14.8097 79.3178 15.4173 78.803L14.1245 77.277C13.5802 77.7382 13.1236 78.057 12.7511 78.2563C12.369 78.4608 12.141 78.504 12.0349 78.504V80.504ZM15.7692 78.0987C15.8137 77.3423 15.9415 76.4137 16.16 75.3055L14.1978 74.9185C13.9683 76.0823 13.8241 77.1057 13.7726 77.9813L15.7692 78.0987ZM16.1616 75.2971C16.8284 71.7568 17.6189 69.317 18.4844 67.8745L16.7694 66.8455C15.7149 68.603 14.8734 71.3312 14.1962 74.9269L16.1616 75.2971ZM18.4844 67.8745C19.354 66.4251 20.2039 65.96 20.9869 65.96V63.96C19.2099 63.96 17.8198 65.0949 16.7694 66.8455L18.4844 67.8745ZM20.9869 65.96C21.5355 65.96 21.7696 66.115 21.8942 66.2667L23.4396 64.9973C22.8283 64.253 21.9424 63.96 20.9869 63.96V65.96ZM21.9195 66.2964C22.1036 66.5034 22.2429 66.8224 22.2429 67.36H24.2429C24.2429 66.4576 23.9983 65.6246 23.4143 64.9676L21.9195 66.2964ZM22.2429 67.36C22.2429 68.2789 21.9252 69.4502 21.1873 70.9032C20.4535 72.3481 19.3347 74.0122 17.8092 75.8994L19.3646 77.1566C20.9432 75.2038 22.1523 73.4199 22.9705 71.8088C23.7846 70.2058 24.2429 68.7131 24.2429 67.36H22.2429ZM17.5899 76.4513C17.5398 77.1014 17.5149 77.759 17.5149 78.424H19.5149C19.5149 77.809 19.538 77.2026 19.584 76.6047L17.5899 76.4513ZM17.5149 78.424C17.5149 79.1176 17.5701 79.7478 17.7354 80.2376C17.8937 80.707 18.3057 81.416 19.1869 81.416V79.416C19.3535 79.416 19.5039 79.4894 19.5958 79.5802C19.6634 79.647 19.6587 79.6823 19.6304 79.5983C19.5717 79.4242 19.5149 79.0584 19.5149 78.424H17.5149ZM19.1869 81.416C19.5319 81.416 19.8769 81.3761 20.1991 81.2687L19.5667 79.3713C19.5049 79.3919 19.3859 79.416 19.1869 79.416V81.416ZM18.9528 80.6872L19.3128 81.5992L21.1731 80.8648L20.8131 79.9528L18.9528 80.6872ZM19.6642 80.4165C18.8025 81.028 18.0085 81.288 17.2669 81.288V83.288C18.5093 83.288 19.6994 82.844 20.8217 82.0475L19.6642 80.4165ZM17.2669 81.288C16.7513 81.288 16.4661 81.1446 16.2828 80.9577C16.079 80.75 15.8758 80.3598 15.7873 79.6451L13.8025 79.8909C13.922 80.8562 14.2348 81.726 14.855 82.3583C15.4957 83.0114 16.3425 83.288 17.2669 83.288V81.288ZM14.1364 79.0154C12.2583 80.6587 10.8553 81.288 9.87491 81.288V83.288C11.6145 83.288 13.4915 82.2373 15.4534 80.5206L14.1364 79.0154ZM9.87491 81.288C9.27802 81.288 8.87689 81.1146 8.5787 80.8258L7.18711 82.2622C7.91292 82.9654 8.8398 83.288 9.87491 83.288V81.288ZM8.60115 80.8482C8.34122 80.5799 8.13891 80.1285 8.13891 79.336H6.13891C6.13891 80.4635 6.43259 81.4841 7.16467 82.2398L8.60115 80.8482ZM8.13891 79.336C8.13891 78.9337 8.28294 78.1519 8.65008 76.9068L6.73174 76.3412C6.36287 77.5921 6.13891 78.6183 6.13891 79.336H8.13891ZM8.64773 76.9147C9.03029 75.6554 9.25752 74.9009 9.32443 74.6667L7.40138 74.1173C7.34029 74.3311 7.11952 75.0646 6.73409 76.3333L8.64773 76.9147ZM8.74309 73.4671C6.30038 72.463 5.45091 71.2397 5.45091 69.928H3.45091C3.45091 72.4243 5.20943 74.177 7.98273 75.3169L8.74309 73.4671ZM5.45091 69.928C5.45091 68.9762 5.87322 68.0902 6.90703 67.2469L5.64278 65.6971C4.24459 66.8378 3.45091 68.2558 3.45091 69.928H5.45091ZM6.9131 67.2419C7.96159 66.3727 9.09096 65.96 10.3309 65.96V63.96C8.59485 63.96 7.02023 64.5553 5.63672 65.7021L6.9131 67.2419ZM10.3309 65.96C11.2027 65.96 11.6725 66.1758 11.9306 66.4319C12.1872 66.6865 12.4029 67.1481 12.4029 68.008H14.4029C14.4029 66.8359 14.1066 65.7735 13.3392 65.0121C12.5733 64.2522 11.5071 63.96 10.3309 63.96V65.96ZM9.78013 72.9398C10.3438 70.9748 10.6589 69.4049 10.6589 68.296H8.65891C8.65891 69.1071 8.41396 70.4492 7.85768 72.3882L9.78013 72.9398ZM10.6589 68.296C10.6589 67.7267 10.5623 67.1199 10.2137 66.6335C9.82106 66.0856 9.23243 65.856 8.62691 65.856V67.856C8.68313 67.856 8.68445 67.8656 8.65668 67.8527C8.62356 67.8373 8.59843 67.813 8.58809 67.7985C8.58217 67.7903 8.60151 67.8135 8.62177 67.8984C8.64215 67.9836 8.65891 68.1125 8.65891 68.296H10.6589ZM8.62691 65.856C7.61303 65.856 6.74583 66.3278 6.04336 67.0905L7.51445 68.4455C7.93198 67.9922 8.29678 67.856 8.62691 67.856V65.856ZM6.04336 67.0905C5.33588 67.8586 4.93891 68.7655 4.93891 69.784H6.93891C6.93891 69.3305 7.10193 68.8934 7.51445 68.4455L6.04336 67.0905ZM4.93891 69.784C4.93891 70.8027 5.35109 71.6792 6.11587 72.3566L7.44194 70.8594C7.08672 70.5448 6.93891 70.2053 6.93891 69.784H4.93891ZM6.12812 72.3673C6.81203 72.9535 7.6267 73.3686 8.54928 73.627L9.08854 71.701C8.41111 71.5114 7.86578 71.2225 7.4297 70.8487L6.12812 72.3673ZM22.8029 67.312C22.8029 67.0018 22.7506 66.5874 22.4865 66.2308C22.1807 65.818 21.7316 65.664 21.3229 65.664V67.664C21.2913 67.664 21.2163 67.6586 21.1225 67.6164C21.0231 67.5717 20.9389 67.5016 20.8793 67.4212C20.7752 67.2806 20.8029 67.1902 20.8029 67.312H22.8029ZM21.3229 65.664C20.9305 65.664 20.6221 65.8364 20.4141 66.0096C20.2102 66.1794 20.0515 66.3904 19.9262 66.592C19.6753 66.9955 19.4505 67.5388 19.2399 68.1727C18.814 69.4545 18.3742 71.3321 17.916 73.7757L19.8818 74.1443C20.3356 71.7239 20.7558 69.9535 21.1379 68.8033C21.3313 68.2212 21.4975 67.8525 21.6247 67.648C21.6883 67.5456 21.7154 67.5286 21.694 67.5464C21.6685 67.5676 21.5393 67.664 21.3229 67.664V65.664ZM19.694 74.5664C20.4664 73.5538 21.166 72.3606 21.7982 70.9965L19.9836 70.1555C19.3998 71.4154 18.7714 72.4782 18.1038 73.3536L19.694 74.5664ZM21.8001 70.9923C22.4308 69.6148 22.8029 68.372 22.8029 67.312H20.8029C20.8029 67.948 20.567 68.8812 19.9817 70.1597L21.8001 70.9923ZM22.8925 82.072H21.8925V83.072H22.8925V82.072ZM23.5645 77.752L22.5874 77.539L22.5859 77.546L23.5645 77.752ZM23.5885 72.448L22.7885 73.048L22.7911 73.0514L23.5885 72.448ZM23.3725 72.16L22.3754 72.0833L22.3465 72.4588L22.5725 72.76L23.3725 72.16ZM23.3965 71.848L23.1288 70.8845L22.4532 71.0722L22.3994 71.7713L23.3965 71.848ZM27.5485 71.488L28.3428 70.8805L28.0426 70.488H27.5485V71.488ZM27.8845 72.976L26.8847 72.9982L26.9286 74.9743L28.4946 73.7683L27.8845 72.976ZM32.7805 71.968L32.0148 72.6112L32.0222 72.62L32.0298 72.6286L32.7805 71.968ZM33.4045 79.84L32.9573 78.9456L32.9474 78.9505L32.9377 78.9556L33.4045 79.84ZM33.6925 79.696L34.5818 79.2387L34.1296 78.3594L33.2453 78.8016L33.6925 79.696ZM34.1245 80.536L34.7888 81.2834L35.3684 80.7682L35.0138 80.0787L34.1245 80.536ZM33.5485 81.016L34.1732 81.7969L33.5485 81.016ZM32.2045 81.808L32.6517 82.7025L32.6603 82.698L32.2045 81.808ZM29.2525 77.2L28.2811 76.9623L28.2788 76.9721L29.2525 77.2ZM27.6925 74.248L27.181 73.3887L26.7873 73.623L26.7077 74.0742L27.6925 74.248ZM27.2125 76.408L26.2385 76.1812L26.2364 76.1904L27.2125 76.408ZM26.3725 81.736L26.7439 82.6645L27.3725 82.413V81.736H26.3725ZM23.3485 81.072H22.8925V83.072H23.3485V81.072ZM23.8925 82.072C23.8925 81.4405 24.0919 80.1007 24.543 77.958L22.5859 77.546C22.141 79.6593 21.8925 81.1995 21.8925 82.072H23.8925ZM24.5415 77.965C24.7742 76.8981 24.9502 76.0547 25.0685 75.4386C25.1276 75.1311 25.1736 74.8735 25.2052 74.6697C25.2333 74.488 25.2605 74.2872 25.2605 74.128H23.2605C23.2605 74.1128 23.2586 74.171 23.2288 74.3633C23.2024 74.5335 23.1614 74.7649 23.1044 75.0614C22.9907 75.6533 22.8188 76.4779 22.5874 77.539L24.5415 77.965ZM25.2605 74.128C25.2605 73.3093 24.9133 72.5415 24.3859 71.8446L22.7911 73.0514C23.1597 73.5385 23.2605 73.8907 23.2605 74.128H25.2605ZM24.3885 71.848L24.1725 71.56L22.5725 72.76L22.7885 73.048L24.3885 71.848ZM24.3695 72.2367L24.3935 71.9247L22.3994 71.7713L22.3754 72.0833L24.3695 72.2367ZM23.6641 72.8115C24.3889 72.6102 25.6572 72.488 27.5485 72.488V70.488C25.6317 70.488 24.1321 70.6058 23.1288 70.8845L23.6641 72.8115ZM26.7541 72.0954C26.7386 72.0752 26.7747 72.1145 26.813 72.2843C26.8497 72.4466 26.8776 72.6797 26.8847 72.9982L28.8842 72.9538C28.8677 72.212 28.7603 71.4265 28.3428 70.8805L26.7541 72.0954ZM28.4946 73.7683C29.8388 72.7331 30.7927 72.368 31.4125 72.368V70.368C30.1123 70.368 28.7141 71.0749 27.2743 72.1837L28.4946 73.7683ZM31.4125 72.368C31.7273 72.368 31.8898 72.4624 32.0148 72.6112L33.5462 71.3248C32.9992 70.6736 32.2496 70.368 31.4125 70.368V72.368ZM32.0298 72.6286C32.1985 72.8203 32.3085 73.0786 32.3085 73.48H34.3085C34.3085 72.6654 34.0665 71.9157 33.5312 71.3074L32.0298 72.6286ZM32.3085 73.48C32.3085 73.9337 32.1559 74.8551 31.7863 76.3335L33.7266 76.8185C34.093 75.3529 34.3085 74.2103 34.3085 73.48H32.3085ZM31.7863 76.3335C31.4232 77.7858 31.2045 78.8967 31.2045 79.552H33.2045C33.2045 79.1833 33.3537 78.3102 33.7266 76.8185L31.7863 76.3335ZM31.2045 79.552C31.2045 79.8213 31.2197 80.11 31.2842 80.3599C31.3153 80.4804 31.3783 80.6764 31.5217 80.8617C31.6878 81.0762 31.9852 81.296 32.3965 81.296V79.296C32.5499 79.296 32.7016 79.3352 32.8358 79.4095C32.9643 79.4806 33.0502 79.5689 33.1032 79.6373C33.1552 79.7046 33.1839 79.7632 33.1981 79.7963C33.2128 79.8305 33.2191 79.8539 33.2207 79.8601C33.2212 79.862 33.2045 79.7787 33.2045 79.552H31.2045ZM32.3965 81.296C32.6085 81.296 32.7919 81.2296 32.8454 81.2108C32.9378 81.1783 33.0361 81.1368 33.1326 81.0931C33.3279 81.0048 33.5766 80.8799 33.8712 80.7244L32.9377 78.9556C32.6563 79.1041 32.449 79.2072 32.3083 79.2709C32.2368 79.3032 32.1971 79.3187 32.1816 79.3242C32.1739 79.3269 32.184 79.3229 32.2071 79.3173C32.2207 79.314 32.2933 79.296 32.3965 79.296V81.296ZM33.8517 80.7344L34.1397 80.5904L33.2453 78.8016L32.9573 78.9456L33.8517 80.7344ZM32.8032 80.1533L33.2352 80.9933L35.0138 80.0787L34.5818 79.2387L32.8032 80.1533ZM33.4601 79.7886C33.3343 79.9004 33.1572 80.0484 32.9238 80.2351L34.1732 81.7969C34.4198 81.5996 34.6266 81.4276 34.7888 81.2834L33.4601 79.7886ZM32.9238 80.2351C32.7708 80.3575 32.4045 80.582 31.7486 80.918L32.6603 82.698C33.3164 82.362 33.8462 82.0585 34.1732 81.7969L32.9238 80.2351ZM31.7573 80.9136C31.2042 81.1901 30.7841 81.288 30.4765 81.288V83.288C31.1929 83.288 31.9247 83.0659 32.6517 82.7024L31.7573 80.9136ZM30.4765 81.288C30.0823 81.288 29.9594 81.1819 29.9134 81.1296C29.8458 81.0528 29.7245 80.8352 29.7245 80.296H27.7245C27.7245 81.0848 27.8951 81.8632 28.4116 82.4504C28.9496 83.0621 29.7026 83.288 30.4765 83.288V81.288ZM29.7245 80.296C29.7245 79.8682 29.8713 78.9442 30.2262 77.4279L28.2788 76.9721C27.9297 78.4638 27.7245 79.6038 27.7245 80.296H29.7245ZM30.2238 77.4377C30.4099 76.6771 30.5524 76.0406 30.6489 75.5327C30.7416 75.045 30.8045 74.6143 30.8045 74.296H28.8045C28.8045 74.4097 28.7753 74.679 28.6841 75.1593C28.5966 75.6194 28.463 76.2189 28.2811 76.9623L30.2238 77.4377ZM30.8045 74.296C30.8045 74.0074 30.7649 73.6205 30.5487 73.2772C30.2836 72.8562 29.8489 72.648 29.3965 72.648V74.648C29.3304 74.648 29.2239 74.6341 29.1071 74.5723C28.9875 74.509 28.9054 74.4208 28.8562 74.3428C28.8114 74.2715 28.8008 74.2203 28.8003 74.2179C28.7996 74.2145 28.8045 74.2374 28.8045 74.296H30.8045ZM29.3965 72.648C28.6679 72.648 27.9139 72.9525 27.181 73.3887L28.204 75.1073C28.8151 74.7435 29.197 74.648 29.3965 74.648V72.648ZM26.7077 74.0742C26.6655 74.3132 26.5132 75.0019 26.2385 76.1812L28.1864 76.6348C28.4558 75.4781 28.6234 74.7268 28.6773 74.4218L26.7077 74.0742ZM26.2364 76.1904C25.677 78.6998 25.3725 80.5735 25.3725 81.736H27.3725C27.3725 80.8185 27.6279 79.1402 28.1885 76.6256L26.2364 76.1904ZM26.0011 80.8075C25.6387 80.9525 24.8075 81.072 23.3485 81.072V83.072C24.8014 83.072 25.9862 82.9675 26.7439 82.6645L26.0011 80.8075ZM39.208 76.336L40.1747 76.5919L40.1753 76.5896L39.208 76.336ZM39.88 79.84L40.309 80.7433L40.3181 80.7389L40.3272 80.7344L39.88 79.84ZM40.168 79.696L41.0675 79.2591L40.6255 78.3492L39.7208 78.8016L40.168 79.696ZM40.576 80.536L41.2403 81.2834L41.8063 80.7803L41.4755 80.0991L40.576 80.536ZM40 81.016L40.6247 81.7969L40 81.016ZM38.656 81.808L39.0944 82.7068L39.1032 82.7025L39.1118 82.698L38.656 81.808ZM35.512 81.784L34.772 82.4567L34.7798 82.4653L34.7878 82.4737L35.512 81.784ZM35.632 77.272L36.5977 77.5316L36.5984 77.529L35.632 77.272ZM35.608 72.448L36.4262 71.8731L36.4173 71.8604L36.408 71.848L35.608 72.448ZM35.392 72.16L34.3949 72.0833L34.366 72.4588L34.592 72.76L35.392 72.16ZM35.416 71.848L35.1436 70.8858L34.4724 71.0758L34.4189 71.7713L35.416 71.848ZM39.544 71.488L40.2997 70.8331L40.0006 70.488H39.544V71.488ZM37.12 68.872L36.4129 69.5791L36.4219 69.5882L36.4312 69.597L37.12 68.872ZM37.288 66.208L36.622 65.4621L36.6152 65.4681L36.6086 65.4742L37.288 66.208ZM40.168 66.088L40.8751 65.3809V65.3809L40.168 66.088ZM39.952 68.728L39.299 67.9706L39.2924 67.9763L39.286 67.9821L39.952 68.728ZM38.856 72.856C38.856 73.3836 38.6741 74.4288 38.2407 76.0824L40.1753 76.5896C40.6058 74.9472 40.856 73.6724 40.856 72.856H38.856ZM38.2413 76.0801C38.0226 76.9063 37.8551 77.6034 37.7417 78.1665C37.6319 78.7115 37.56 79.19 37.56 79.552H39.56C39.56 79.402 39.5961 79.0885 39.7023 78.5615C39.8048 78.0526 39.9614 77.3977 40.1747 76.5919L38.2413 76.0801ZM37.56 79.552C37.56 79.8245 37.5772 80.1254 37.6536 80.3888C37.6914 80.5191 37.766 80.721 37.9274 80.9063C38.1143 81.1209 38.4081 81.296 38.776 81.296V79.296C38.907 79.296 39.0417 79.3255 39.1669 79.3871C39.2888 79.4471 39.3766 79.525 39.4356 79.5927C39.5429 79.716 39.5725 79.8249 39.5743 79.8312C39.5788 79.8466 39.56 79.7755 39.56 79.552H37.56ZM38.776 81.296C38.979 81.296 39.1601 81.2342 39.2103 81.2178C39.3021 81.1877 39.403 81.1487 39.5057 81.1063C39.7134 81.0205 39.9834 80.8979 40.309 80.7433L39.4509 78.9367C39.1365 79.0861 38.9026 79.1915 38.7422 79.2577C38.6609 79.2913 38.6118 79.3093 38.5877 79.3172C38.5755 79.3212 38.581 79.3189 38.599 79.3147C38.606 79.3131 38.6758 79.296 38.776 79.296V81.296ZM40.3272 80.7344L40.6152 80.5904L39.7208 78.8016L39.4328 78.9456L40.3272 80.7344ZM39.2685 80.1329L39.6765 80.9729L41.4755 80.0991L41.0675 79.2591L39.2685 80.1329ZM39.9116 79.7886C39.7858 79.9004 39.6087 80.0484 39.3753 80.2351L40.6247 81.7969C40.8713 81.5996 41.0781 81.4276 41.2403 81.2834L39.9116 79.7886ZM39.3753 80.2351C39.2223 80.3575 38.856 80.582 38.2001 80.918L39.1118 82.698C39.7679 82.362 40.2977 82.0585 40.6247 81.7969L39.3753 80.2351ZM38.2175 80.9092C37.6583 81.1821 37.2012 81.288 36.832 81.288V83.288C37.5828 83.288 38.3417 83.0739 39.0944 82.7068L38.2175 80.9092ZM36.832 81.288C36.4847 81.288 36.3291 81.192 36.2361 81.0943L34.7878 82.4737C35.3349 83.048 36.0593 83.288 36.832 83.288V81.288ZM36.2519 81.1113C36.133 80.9805 36.032 80.7744 36.032 80.392H34.032C34.032 81.1616 34.251 81.8835 34.772 82.4567L36.2519 81.1113ZM36.032 80.392C36.032 79.949 36.1954 79.028 36.5977 77.5316L34.6663 77.0124C34.2685 78.492 34.032 79.651 34.032 80.392H36.032ZM36.5984 77.529C36.8009 76.7675 36.9562 76.127 37.0616 75.6127C37.1628 75.1188 37.232 74.6772 37.232 74.344H35.232C35.232 74.4588 35.2011 74.7292 35.1023 75.2113C35.0077 75.673 34.863 76.2725 34.6656 77.015L36.5984 77.529ZM37.232 74.344C37.232 73.4502 36.9509 72.6198 36.4262 71.8731L34.7898 73.0229C35.097 73.4602 35.232 73.8938 35.232 74.344H37.232ZM36.408 71.848L36.192 71.56L34.592 72.76L34.808 73.048L36.408 71.848ZM36.389 72.2367L36.413 71.9247L34.4189 71.7713L34.3949 72.0833L36.389 72.2367ZM35.6883 72.8102C36.3939 72.6105 37.651 72.488 39.544 72.488V70.488C37.629 70.488 36.1341 70.6055 35.1436 70.8858L35.6883 72.8102ZM38.7883 72.1429C38.7459 72.0941 38.7715 72.0943 38.803 72.2324C38.8329 72.3634 38.856 72.5653 38.856 72.856H40.856C40.856 72.4747 40.8271 72.1126 40.7529 71.7876C40.6804 71.4697 40.55 71.1219 40.2997 70.8331L38.7883 72.1429ZM37.8271 68.1649C37.7259 68.0637 37.64 67.9105 37.64 67.6H35.64C35.64 68.3455 35.8741 69.0403 36.4129 69.5791L37.8271 68.1649ZM37.64 67.6C37.64 67.3842 37.7137 67.1766 37.9674 66.9418L36.6086 65.4742C35.9982 66.0394 35.64 66.7598 35.64 67.6H37.64ZM37.954 66.9539C38.2273 66.7099 38.5049 66.608 38.824 66.608V64.608C37.991 64.608 37.2446 64.9061 36.622 65.4621L37.954 66.9539ZM38.824 66.608C39.2107 66.608 39.376 66.7103 39.4609 66.7951L40.8751 65.3809C40.3199 64.8257 39.5892 64.608 38.824 64.608V66.608ZM39.4609 66.7951C39.5621 66.8963 39.648 67.0495 39.648 67.36H41.648C41.648 66.6145 41.4139 65.9197 40.8751 65.3809L39.4609 66.7951ZM39.648 67.36C39.648 67.5237 39.5902 67.7196 39.299 67.9706L40.6049 69.4854C41.2417 68.9364 41.648 68.2203 41.648 67.36H39.648ZM39.286 67.9821C39.0068 68.2313 38.7356 68.328 38.44 68.328V70.328C39.2643 70.328 40.0012 70.0247 40.618 69.4739L39.286 67.9821ZM38.44 68.328C38.0645 68.328 37.8966 68.2305 37.8087 68.147L36.4312 69.597C36.9833 70.1215 37.6955 70.328 38.44 70.328V68.328ZM46.419 87.376L45.5246 87.8232L45.8195 88.413L46.4778 88.3743L46.419 87.376ZM47.115 81.064L48.0956 81.2601L48.6389 78.5438L46.4858 80.2868L47.115 81.064ZM42.267 81.28L43.0533 80.6622L42.267 81.28ZM42.819 73.168L43.6165 73.7715L43.6203 73.7663L42.819 73.168ZM48.459 71.92L48.0958 72.8517L48.4451 72.9879L48.7978 72.8609L48.459 71.92ZM51.531 71.488L52.5174 71.3236L52.3782 70.488H51.531V71.488ZM50.667 79.792L49.6862 79.5968L49.6853 79.6017L50.667 79.792ZM49.755 86.728L50.1323 87.6541L50.755 87.4004V86.728H49.755ZM45.555 74.392L44.6227 74.0302L44.6199 74.0378L45.555 74.392ZM47.403 79.624L48.058 80.3797L48.3175 80.1548L48.384 79.8179L47.403 79.624ZM48.219 73.048H49.219V72.3665L48.5847 72.1172L48.219 73.048ZM47.3135 86.9288C47.3338 86.9694 47.3347 86.9854 47.3277 86.9566C47.3215 86.9313 47.3126 86.8851 47.3039 86.8129C47.2864 86.6668 47.275 86.458 47.275 86.176H45.275C45.275 86.502 45.2877 86.7972 45.3182 87.0511C45.346 87.2834 45.398 87.57 45.5246 87.8232L47.3135 86.9288ZM47.275 86.176C47.275 85.9661 47.3301 85.4665 47.4718 84.6041C47.6091 83.7684 47.8166 82.6551 48.0956 81.2601L46.1345 80.8679C45.8534 82.2729 45.6409 83.4116 45.4983 84.2799C45.36 85.1215 45.275 85.7779 45.275 86.176H47.275ZM46.4858 80.2868C45.5661 81.0313 44.8564 81.288 44.331 81.288V83.288C45.5017 83.288 46.6479 82.7287 47.7442 81.8412L46.4858 80.2868ZM44.331 81.288C43.7927 81.288 43.3935 81.0951 43.0533 80.6622L41.4807 81.8978C42.1966 82.8089 43.1734 83.288 44.331 83.288V81.288ZM43.0533 80.6622C42.7219 80.2404 42.475 79.5009 42.475 78.28H40.475C40.475 79.7151 40.7561 80.9756 41.4807 81.8978L43.0533 80.6622ZM42.475 78.28C42.475 76.1706 42.9029 74.7143 43.6164 73.7714L42.0216 72.5646C40.9431 73.9897 40.475 75.9414 40.475 78.28H42.475ZM43.6203 73.7663C44.37 72.7622 45.1674 72.368 46.035 72.368V70.368C44.4067 70.368 43.06 71.1738 42.0177 72.5697L43.6203 73.7663ZM46.035 72.368C46.5364 72.368 47.2146 72.5082 48.0958 72.8517L48.8222 70.9883C47.8154 70.5958 46.8777 70.368 46.035 70.368V72.368ZM48.7978 72.8609C49.451 72.6257 50.3495 72.488 51.531 72.488V70.488C50.2165 70.488 49.0671 70.6383 48.1203 70.9791L48.7978 72.8609ZM50.5446 71.6524C50.5816 71.8742 50.603 72.1456 50.603 72.472H52.603C52.603 72.0624 52.5765 71.6778 52.5174 71.3236L50.5446 71.6524ZM50.603 72.472C50.603 74.1174 50.3062 76.4814 49.6863 79.5968L51.6478 79.9872C52.2759 76.8306 52.603 74.3146 52.603 72.472H50.603ZM49.6853 79.6017C49.0757 82.746 48.755 85.1378 48.755 86.728H50.755C50.755 85.3422 51.0424 83.11 51.6488 79.9823L49.6853 79.6017ZM49.3777 85.8019C48.6504 86.0982 47.6565 86.3015 46.3603 86.3777L46.4778 88.3743C47.9015 88.2905 49.1317 88.0618 50.1323 87.6541L49.3777 85.8019ZM47.091 71.784C46.4557 71.784 45.9282 72.0762 45.5279 72.4953C45.1454 72.8958 44.8549 73.4322 44.6228 74.0302L46.4873 74.7538C46.6712 74.2798 46.8447 74.0122 46.9741 73.8767C47.0344 73.8137 47.0727 73.7923 47.0847 73.7865C47.0907 73.7837 47.0925 73.7835 47.0912 73.7838C47.0897 73.7841 47.0892 73.784 47.091 73.784V71.784ZM44.6199 74.0378C44.1674 75.2322 43.955 76.5973 43.955 78.112H45.955C45.955 76.7787 46.1426 75.6638 46.4902 74.7462L44.6199 74.0378ZM43.955 78.112C43.955 78.8647 44.0309 79.5622 44.2634 80.1067C44.3841 80.3895 44.5679 80.6804 44.8527 80.9027C45.1518 81.1363 45.5042 81.248 45.867 81.248V79.248C45.9258 79.248 46.0122 79.2707 46.0834 79.3263C46.1401 79.3706 46.1339 79.3945 46.1027 79.3213C46.0312 79.1538 45.955 78.7833 45.955 78.112H43.955ZM45.867 81.248C46.6911 81.248 47.4284 80.9253 48.058 80.3797L46.7481 78.8683C46.4177 79.1547 46.131 79.248 45.867 79.248V81.248ZM48.384 79.8179C48.9331 77.0406 49.219 74.7752 49.219 73.048H47.219C47.219 74.5848 46.961 76.7034 46.422 79.4301L48.384 79.8179ZM48.5847 72.1172C48.0803 71.9191 47.5716 71.784 47.091 71.784V73.784C47.2185 73.784 47.4618 73.8249 47.8534 73.9788L48.5847 72.1172ZM53.493 76.696L54.4626 76.9408L54.4632 76.9385L53.493 76.696ZM53.253 72.136L52.256 72.0593L52.2225 72.494L52.5182 72.8143L53.253 72.136ZM53.277 71.824L53.0754 70.8445L52.3377 70.9964L52.28 71.7473L53.277 71.824ZM57.573 71.488L58.5064 71.129L58.2598 70.488H57.573V71.488ZM57.021 76.096L57.9907 76.3406L57.021 76.096ZM58.437 79.552L58.9207 80.4272L59.3439 80.1934L59.4234 79.7164L58.437 79.552ZM58.917 77.344L59.8905 77.5731L59.8926 77.5635L58.917 77.344ZM59.781 71.848L59.4096 70.9195L58.781 71.171V71.848H59.781ZM63.261 71.512H64.261V70.512H63.261V71.512ZM62.589 75.928L63.5685 76.1297L63.5688 76.1282L62.589 75.928ZM63.525 79.744L64.3849 79.2335L63.9211 78.4524L63.0992 78.8392L63.525 79.744ZM63.981 80.512L64.6204 81.2809L65.2766 80.7353L64.8409 80.0015L63.981 80.512ZM58.917 81.856L58.2838 82.63L58.2922 82.6368L58.3007 82.6435L58.917 81.856ZM58.317 80.728L59.3117 80.6251L59.1211 78.7829L57.6854 79.9528L58.317 80.728ZM53.397 81.76L52.6744 82.4512L52.6821 82.4593L52.6899 82.4671L53.397 81.76ZM53.869 80.2C53.869 79.6502 54.0459 78.5917 54.4626 76.9407L52.5234 76.4513C52.1082 78.0963 51.869 79.3738 51.869 80.2H53.869ZM54.4632 76.9385C54.6727 76.1003 54.8326 75.4147 54.9407 74.8866C55.0422 74.3909 55.117 73.9486 55.117 73.648H53.117C53.117 73.6478 53.117 73.6493 53.1169 73.6526C53.1168 73.6559 53.1166 73.6606 53.1163 73.6668C53.1155 73.6794 53.1142 73.6965 53.1121 73.7187C53.1077 73.7636 53.1003 73.8224 53.0891 73.8969C53.0667 74.0464 53.0313 74.2413 52.9813 74.4854C52.8815 74.9733 52.7293 75.6277 52.5229 76.4535L54.4632 76.9385ZM55.117 73.648C55.117 73.215 54.9589 72.8177 54.7693 72.4859C54.5749 72.1458 54.3058 71.8022 53.9878 71.4577L52.5182 72.8143C52.7763 73.0938 52.9391 73.3142 53.0328 73.4781C53.1312 73.6503 53.117 73.697 53.117 73.648H55.117ZM54.2501 72.2127L54.2741 71.9007L52.28 71.7473L52.256 72.0593L54.2501 72.2127ZM53.4787 72.8035C54.4731 72.5987 55.8297 72.488 57.573 72.488V70.488C55.7644 70.488 54.257 70.6013 53.0754 70.8445L53.4787 72.8035ZM56.6397 71.847C56.6341 71.8325 56.6524 71.8793 56.6686 72.0318C56.6837 72.1731 56.693 72.3655 56.693 72.616H58.693C58.693 72.0764 58.6603 71.5292 58.5064 71.129L56.6397 71.847ZM56.693 72.616C56.693 73.0117 56.5073 74.0442 56.0514 75.8514L57.9907 76.3406C58.4308 74.5958 58.693 73.3083 58.693 72.616H56.693ZM56.0514 75.8514C55.8256 76.7465 55.6534 77.4834 55.537 78.0572C55.4263 78.6028 55.349 79.0786 55.349 79.408H57.349C57.349 79.3053 57.3838 79.0132 57.4971 78.4548C57.6046 77.9246 57.7684 77.2215 57.9907 76.3406L56.0514 75.8514ZM55.349 79.408C55.349 79.7182 55.4013 80.1326 55.6655 80.4892C55.9713 80.902 56.4203 81.056 56.829 81.056V79.056C56.8606 79.056 56.9356 79.0614 57.0294 79.1036C57.1288 79.1483 57.213 79.2184 57.2726 79.2988C57.3768 79.4394 57.349 79.5298 57.349 79.408H55.349ZM56.829 81.056C57.5258 81.056 58.2326 80.8075 58.9207 80.4272L57.9533 78.6768C57.4255 78.9685 57.0603 79.056 56.829 79.056V81.056ZM59.4234 79.7164C59.4812 79.37 59.6334 78.6653 59.8904 77.573L57.9436 77.115C57.6886 78.1987 57.5209 78.966 57.4506 79.3876L59.4234 79.7164ZM59.8926 77.5635C60.4688 75.0028 60.781 73.0742 60.781 71.848H58.781C58.781 72.8298 58.5173 74.5652 57.9414 77.1245L59.8926 77.5635ZM60.1524 72.7765C60.5148 72.6315 61.346 72.512 62.805 72.512V70.512C61.3521 70.512 60.1673 70.6165 59.4096 70.9195L60.1524 72.7765ZM62.805 72.512H63.261V70.512H62.805V72.512ZM62.261 71.512C62.261 72.1462 62.0606 73.5194 61.6093 75.7278L63.5688 76.1282C64.0134 73.9526 64.261 72.3818 64.261 71.512H62.261ZM61.6096 75.7263C61.3848 76.8183 61.2145 77.6934 61.1 78.3476C60.9919 78.9655 60.917 79.4722 60.917 79.768H62.917C62.917 79.768 62.917 79.7658 62.9172 79.7612C62.9173 79.7566 62.9176 79.7502 62.9181 79.7419C62.919 79.725 62.9207 79.7025 62.9233 79.6737C62.9287 79.6157 62.9373 79.5403 62.9501 79.4454C62.9757 79.2554 63.0152 79.0056 63.0701 78.6924C63.1796 78.0666 63.3453 77.2137 63.5685 76.1297L61.6096 75.7263ZM60.917 79.768C60.917 79.9937 60.937 80.2978 61.06 80.5807C61.1263 80.7333 61.2419 80.9245 61.4436 81.0791C61.6587 81.244 61.9107 81.32 62.157 81.32V79.32C62.3233 79.32 62.5053 79.373 62.6605 79.4919C62.8021 79.6005 62.8678 79.7227 62.8941 79.7833C62.9371 79.8822 62.917 79.9103 62.917 79.768H60.917ZM62.157 81.32C62.3007 81.32 62.4191 81.2898 62.4598 81.2793C62.5194 81.2639 62.5765 81.2454 62.6251 81.2285C62.7231 81.1944 62.8369 81.1491 62.9591 81.0976C63.2061 80.9936 63.5387 80.8428 63.9508 80.6488L63.0992 78.8392C62.6954 79.0292 62.392 79.1664 62.183 79.2544C62.0772 79.2989 62.0079 79.3256 61.968 79.3395C61.9476 79.3466 61.9469 79.3461 61.96 79.3427C61.967 79.3409 61.9852 79.3364 62.0115 79.3319C62.034 79.3281 62.0867 79.32 62.157 79.32V81.32ZM62.6652 80.2545L63.1212 81.0225L64.8409 80.0015L64.3849 79.2335L62.6652 80.2545ZM63.3417 79.7431C61.9788 80.8763 60.9575 81.288 60.237 81.288V83.288C61.6605 83.288 63.1353 82.5157 64.6204 81.2809L63.3417 79.7431ZM60.237 81.288C59.9257 81.288 59.7083 81.2054 59.5333 81.0685L58.3007 82.6435C58.8617 83.0826 59.5243 83.288 60.237 83.288V81.288ZM59.5503 81.082C59.4084 80.966 59.3333 80.834 59.3117 80.6251L57.3223 80.8309C57.3967 81.55 57.7217 82.17 58.2838 82.63L59.5503 81.082ZM57.6854 79.9528C56.47 80.943 55.5143 81.312 54.789 81.312V83.312C56.1757 83.312 57.572 82.625 58.9487 81.5032L57.6854 79.9528ZM54.789 81.312C54.472 81.312 54.2694 81.2182 54.1041 81.0529L52.6899 82.4671C53.2607 83.0378 53.9861 83.312 54.789 83.312V81.312ZM54.1197 81.0688C53.9967 80.9402 53.869 80.6992 53.869 80.2H51.869C51.869 81.0448 52.0933 81.8438 52.6744 82.4512L54.1197 81.0688ZM66.3576 73.12L67.0501 73.8414L67.0503 73.8412L66.3576 73.12ZM72.8136 72.064L73.4203 71.269L72.8136 72.064ZM73.1256 75.88L72.3285 75.2761L72.3226 75.2839L72.3169 75.2918L73.1256 75.88ZM71.7096 77.104L72.1517 78.0009L72.1594 77.9972L72.1669 77.9933L71.7096 77.104ZM68.5896 78.16L68.7136 79.1523L68.727 79.1506L68.7404 79.1486L68.5896 78.16ZM68.0136 78.232L67.8896 77.2397L66.9457 77.3577L67.0164 78.3063L68.0136 78.232ZM71.0856 80.2L70.6795 79.2862L71.0856 80.2ZM72.0936 79.624L71.4689 78.8431L71.4689 78.8431L72.0936 79.624ZM72.4536 79.336L73.2536 78.736L72.6346 77.9106L71.8289 78.5551L72.4536 79.336ZM73.0296 80.104L73.8383 80.6922L74.2727 80.0949L73.8296 79.504L73.0296 80.104ZM72.2616 80.8L71.6616 80L72.2616 80.8ZM71.1816 81.52L71.6647 82.3956L71.6712 82.392L71.6777 82.3882L71.1816 81.52ZM65.5176 81.112L64.7429 81.7444L65.5176 81.112ZM67.9896 77.056H66.9896V78.2479L68.1634 78.0408L67.9896 77.056ZM69.9336 76.024L69.1838 75.3624L69.9336 76.024ZM68.4696 74.176L67.518 73.8686L67.5151 73.8777L68.4696 74.176ZM65.5576 77.848C65.5576 76.061 66.0856 74.7673 67.0501 73.8414L65.6651 72.3986C64.2296 73.7767 63.5576 75.635 63.5576 77.848H65.5576ZM67.0503 73.8412C68.1 72.833 69.2342 72.368 70.4856 72.368V70.368C68.665 70.368 67.0472 71.071 65.6649 72.3988L67.0503 73.8412ZM70.4856 72.368C71.2628 72.368 71.8108 72.5566 72.2069 72.859L73.4203 71.269C72.6004 70.6434 71.5964 70.368 70.4856 70.368V72.368ZM72.2069 72.859C72.5598 73.1283 72.7256 73.4546 72.7256 73.936H74.7256C74.7256 72.8494 74.2833 71.9277 73.4203 71.269L72.2069 72.859ZM72.7256 73.936C72.7256 74.5221 72.5766 74.9487 72.3285 75.2761L73.9227 76.4839C74.4746 75.7553 74.7256 74.8859 74.7256 73.936H72.7256ZM72.3169 75.2918C72.0213 75.6982 71.668 76.0009 71.2522 76.2147L72.1669 77.9933C72.8712 77.6311 73.4618 77.1178 73.9343 76.4682L72.3169 75.2918ZM71.2674 76.2071C70.1952 76.7356 69.2547 77.047 68.4388 77.1714L68.7404 79.1486C69.8125 78.985 70.952 78.5924 72.1517 78.0009L71.2674 76.2071ZM68.4656 77.1677L67.8896 77.2397L68.1376 79.2243L68.7136 79.1523L68.4656 77.1677ZM67.0164 78.3063C67.0798 79.1581 67.2939 79.9569 67.786 80.5577C68.3141 81.2024 69.053 81.488 69.8616 81.488V79.488C69.5502 79.488 69.4211 79.3976 69.3332 79.2903C69.2093 79.1391 69.0594 78.8099 69.0108 78.1577L67.0164 78.3063ZM69.8616 81.488C70.4139 81.488 70.9607 81.3498 71.4917 81.1138L70.6795 79.2862C70.3465 79.4342 70.0773 79.488 69.8616 79.488V81.488ZM71.4917 81.1138C71.9648 80.9035 72.3858 80.6709 72.7183 80.4049L71.4689 78.8431C71.3214 78.9611 71.0704 79.1125 70.6795 79.2862L71.4917 81.1138ZM72.7183 80.4049L73.0783 80.1169L71.8289 78.5551L71.4689 78.8431L72.7183 80.4049ZM71.6536 79.936L72.2296 80.704L73.8296 79.504L73.2536 78.736L71.6536 79.936ZM72.2209 79.5158C72.1879 79.5612 72.0382 79.7175 71.6616 80L72.8616 81.6C73.253 81.3064 73.6153 80.9988 73.8383 80.6922L72.2209 79.5158ZM71.6616 80C71.3032 80.2688 70.9781 80.4845 70.6855 80.6518L71.6777 82.3882C72.0571 82.1715 72.4519 81.9072 72.8616 81.6L71.6616 80ZM70.6985 80.6444C69.9247 81.0713 69.076 81.288 68.1336 81.288V83.288C69.3992 83.288 70.5825 82.9927 71.6647 82.3956L70.6985 80.6444ZM68.1336 81.288C67.2988 81.288 66.7235 81.0079 66.2923 80.4796L64.7429 81.7444C65.5917 82.7841 66.7604 83.288 68.1336 83.288V81.288ZM66.2923 80.4796C65.8443 79.9309 65.5576 79.0954 65.5576 77.848H63.5576C63.5576 79.3846 63.9108 80.7251 64.7429 81.7444L66.2923 80.4796ZM68.1634 78.0408C69.1691 77.8633 70.0326 77.4232 70.6834 76.6856L69.1838 75.3624C68.8746 75.7128 68.4421 75.9607 67.8158 76.0712L68.1634 78.0408ZM70.6834 76.6856C71.3543 75.9253 71.6536 74.9707 71.6536 73.912H69.6536C69.6536 74.5813 69.4728 75.0347 69.1838 75.3624L70.6834 76.6856ZM71.6536 73.912C71.6536 73.4139 71.5856 72.8752 71.3219 72.4302C71.0095 71.9031 70.4863 71.616 69.8856 71.616V73.616C69.8699 73.616 69.8077 73.6115 69.7313 73.5686C69.654 73.5251 69.6141 73.4713 69.6013 73.4498C69.5924 73.4347 69.608 73.4551 69.6245 73.5388C69.6408 73.6209 69.6536 73.7424 69.6536 73.912H71.6536ZM69.8856 71.616C68.556 71.616 67.8699 72.7795 67.518 73.8686L69.4212 74.4834C69.5673 74.0312 69.7138 73.7908 69.816 73.6781C69.8622 73.6273 69.888 73.6149 69.8889 73.6145C69.8897 73.6141 69.888 73.615 69.8849 73.6157C69.8818 73.6164 69.8815 73.616 69.8856 73.616V71.616ZM67.5151 73.8777C67.1707 74.9798 66.9896 76.0412 66.9896 77.056H68.9896C68.9896 76.2788 69.1285 75.4202 69.4241 74.4743L67.5151 73.8777ZM82.6202 81.712L81.9534 82.4572L82.6202 81.712ZM82.8362 77.512L82.2582 76.6959L82.2501 76.7018L82.8362 77.512ZM85.5242 76.36L85.7379 77.3369L87.1098 77.0368L86.3775 75.8385L85.5242 76.36ZM83.6282 73.528L84.4551 72.9657L84.0747 72.4062L83.4138 72.5513L83.6282 73.528ZM78.5642 72.712L77.8808 73.442L77.8888 73.4495L77.897 73.4568L78.5642 72.712ZM77.6522 68.104L78.629 68.3184L78.6344 68.2935L78.6386 68.2684L77.6522 68.104ZM77.7002 67.816L77.7246 66.8163L76.8566 66.7951L76.7138 67.6516L77.7002 67.816ZM79.3082 68.104L80.2249 68.5036L80.6288 67.5769L79.6979 67.183L79.3082 68.104ZM79.6442 71.68L79.0016 72.4462L79.009 72.4524L79.0165 72.4584L79.6442 71.68ZM82.7402 72.112L82.9539 73.0889L84.2897 72.7967L83.6064 71.6123L82.7402 72.112ZM83.1242 66.016L83.7004 66.8334L83.7092 66.827L83.1242 66.016ZM89.3162 65.824L88.6654 66.5833L88.6751 66.5915L88.685 66.5996L89.3162 65.824ZM89.4122 70.264L90.1606 70.9273L90.1679 70.9189L89.4122 70.264ZM87.3242 71.992L86.8204 71.1282L85.8303 71.7057L86.5367 72.6083L87.3242 71.992ZM89.6522 76.48L88.6851 76.7345L88.8561 77.3843L89.5224 77.4715L89.6522 76.48ZM93.6362 77.464L94.5992 77.7336L94.8486 76.8427L93.9798 76.5249L93.6362 77.464ZM93.0122 79.192L92.4008 79.9833L93.3286 80.7003L93.8901 79.6709L93.0122 79.192ZM91.5722 78.376L91.9806 77.4632L91.5722 78.376ZM89.8682 77.872L89.9885 76.8793L88.8682 76.7435V77.872H89.8682ZM88.4042 81.16L87.7215 80.4293L87.7155 80.435L88.4042 81.16ZM86.3882 70.696L85.5818 71.2874L86.0652 71.9465L86.8073 71.604L86.3882 70.696ZM88.0442 69.496L87.3154 68.8113L87.3147 68.8121L88.0442 69.496ZM88.2362 66.952L87.648 67.7607L87.6686 67.7757L87.6899 67.7896L88.2362 66.952ZM85.4762 66.928L84.93 66.0904L84.9214 66.096L84.9129 66.1018L85.4762 66.928ZM85.1402 68.68L84.2354 69.1058V69.1058L85.1402 68.68ZM85.4522 69.328L84.5578 69.7752V69.7752L85.4522 69.328ZM86.0042 70.192L85.1722 70.7467L85.2018 70.7911L85.236 70.8322L86.0042 70.192ZM85.7882 80.152L85.0103 79.5237L85.0073 79.5273L85.7882 80.152ZM86.1482 77.752L87.1018 77.4509L86.8811 76.752H86.1482V77.752ZM85.2362 81.528C84.2497 81.528 83.6506 81.2921 83.287 80.9668L81.9534 82.4572C82.8059 83.2199 83.9508 83.528 85.2362 83.528V81.528ZM83.287 80.9668C82.9004 80.6208 82.7082 80.2002 82.7082 79.624H80.7082C80.7082 80.7438 81.1241 81.7152 81.9534 82.4572L83.287 80.9668ZM82.7082 79.624C82.7082 79.1077 82.9077 78.6945 83.4223 78.3222L82.2501 76.7018C81.2607 77.4175 80.7082 78.4123 80.7082 79.624H82.7082ZM83.4142 78.328C84.061 77.8699 84.83 77.5355 85.7379 77.3369L85.3105 75.3831C84.1704 75.6325 83.1474 76.0661 82.2582 76.696L83.4142 78.328ZM86.3775 75.8385C86.1853 75.5241 85.5349 74.5536 84.4551 72.9657L82.8013 74.0903C83.8975 75.7024 84.5111 76.6199 84.6709 76.8814L86.3775 75.8385ZM83.4138 72.5513C82.821 72.6814 82.2611 72.744 81.7322 72.744V74.744C82.4194 74.744 83.1234 74.6626 83.8426 74.5047L83.4138 72.5513ZM81.7322 72.744C80.5579 72.744 79.7661 72.4461 79.2315 71.9672L77.897 73.4568C78.8984 74.3539 80.2185 74.744 81.7322 74.744V72.744ZM79.2476 71.982C78.7313 71.4986 78.4362 70.8292 78.4362 69.856H76.4362C76.4362 71.2828 76.8931 72.5174 77.8808 73.442L79.2476 71.982ZM78.4362 69.856C78.4362 69.4344 78.4959 68.9244 78.629 68.3184L76.6755 67.8896C76.5205 68.5956 76.4362 69.2536 76.4362 69.856H78.4362ZM78.6386 68.2684L78.6866 67.9804L76.7138 67.6516L76.6658 67.9396L78.6386 68.2684ZM77.6758 68.8157C78.2582 68.8299 78.6581 68.9148 78.9186 69.025L79.6979 67.183C79.1263 66.9412 78.4542 66.8341 77.7246 66.8163L77.6758 68.8157ZM78.3915 67.7044C78.0653 68.4528 77.9002 69.2367 77.9002 70.048H79.9002C79.9002 69.5153 80.0071 69.0032 80.2249 68.5036L78.3915 67.7044ZM77.9002 70.048C77.9002 71.0027 78.2693 71.832 79.0016 72.4462L80.2868 70.9138C80.0271 70.696 79.9002 70.4373 79.9002 70.048H77.9002ZM79.0165 72.4584C79.7132 73.0203 80.5512 73.28 81.4682 73.28V71.28C80.9453 71.28 80.5672 71.1397 80.272 70.9016L79.0165 72.4584ZM81.4682 73.28C81.9043 73.28 82.4061 73.2087 82.9539 73.0889L82.5265 71.1351C82.0504 71.2393 81.7041 71.28 81.4682 71.28V73.28ZM83.6064 71.6123C82.9298 70.4396 82.6602 69.5293 82.6602 68.848H80.6602C80.6602 70.0227 81.1106 71.2884 81.874 72.6117L83.6064 71.6123ZM82.6602 68.848C82.6602 67.9712 82.9917 67.3329 83.7004 66.8333L82.5481 65.1987C81.3047 66.0751 80.6602 67.3248 80.6602 68.848H82.6602ZM83.7092 66.827C84.5106 66.249 85.4089 65.96 86.4362 65.96V63.96C84.9996 63.96 83.6898 64.375 82.5392 65.205L83.7092 66.827ZM86.4362 65.96C87.5424 65.96 88.2367 66.2158 88.6654 66.5833L89.967 65.0647C89.0517 64.2802 87.826 63.96 86.4362 63.96V65.96ZM88.685 66.5996C89.152 66.9798 89.3482 67.4045 89.3482 67.936H91.3482C91.3482 66.7715 90.8564 65.7882 89.9475 65.0484L88.685 66.5996ZM89.3482 67.936C89.3482 68.4927 89.1473 69.0428 88.6565 69.6091L90.1679 70.9189C90.9252 70.0452 91.3482 69.0433 91.3482 67.936H89.3482ZM88.6639 69.6007C88.1061 70.23 87.4915 70.7367 86.8204 71.1282L87.8281 72.8558C88.6929 72.3513 89.4703 71.706 90.1606 70.9273L88.6639 69.6007ZM86.5367 72.6083C87.6205 73.9931 88.3257 75.3685 88.6851 76.7345L90.6193 76.2255C90.1788 74.5515 89.332 72.9349 88.1117 71.3757L86.5367 72.6083ZM89.5224 77.4715C90.7912 77.6377 92.0476 77.9476 93.2926 78.4031L93.9798 76.5249C92.6008 76.0204 91.2012 75.6743 89.7821 75.4885L89.5224 77.4715ZM92.6733 77.1944C92.4528 77.9818 92.2691 78.466 92.1343 78.7131L93.8901 79.6709C94.1393 79.214 94.3717 78.5462 94.5992 77.7336L92.6733 77.1944ZM93.6237 78.4007C93.1863 78.0628 92.6289 77.7532 91.9806 77.4632L91.1639 79.2888C91.7316 79.5428 92.1341 79.7772 92.4008 79.9833L93.6237 78.4007ZM91.9806 77.4632C91.3031 77.1601 90.6374 76.9579 89.9885 76.8793L89.7479 78.8647C90.155 78.9141 90.6253 79.0479 91.1639 79.2888L91.9806 77.4632ZM88.8682 77.872V77.896H90.8682V77.872H88.8682ZM88.8682 77.896C88.8682 78.8658 88.508 79.6944 87.7215 80.4293L89.087 81.8907C90.2524 80.8016 90.8682 79.4542 90.8682 77.896H88.8682ZM87.7155 80.435C86.9114 81.1988 86.0934 81.528 85.2362 81.528V83.528C86.683 83.528 87.977 82.9452 89.093 81.885L87.7155 80.435ZM86.8073 71.604C87.5507 71.2608 88.2076 70.7839 88.7738 70.1799L87.3147 68.8121C86.9209 69.2321 86.4737 69.5552 85.9692 69.788L86.8073 71.604ZM88.7731 70.1807C89.3491 69.5675 89.7882 68.8368 89.7882 68.008H87.7882C87.7882 68.1072 87.7314 68.3685 87.3154 68.8113L88.7731 70.1807ZM89.7882 68.008C89.7882 67.2288 89.4521 66.5511 88.7825 66.1144L87.6899 67.7896C87.746 67.8262 87.7596 67.8508 87.764 67.8593C87.7696 67.87 87.7882 67.9102 87.7882 68.008H89.7882ZM88.8244 66.1433C88.2582 65.7315 87.5789 65.568 86.8682 65.568V67.568C87.2776 67.568 87.5103 67.6605 87.648 67.7607L88.8244 66.1433ZM86.8682 65.568C86.1671 65.568 85.4997 65.7188 84.93 66.0904L86.0225 67.7656C86.1887 67.6572 86.4493 67.568 86.8682 67.568V65.568ZM84.9129 66.1018C84.3088 66.5137 83.9482 67.1326 83.9482 67.888H85.9482C85.9482 67.8617 85.9511 67.8468 85.9526 67.8405C85.9541 67.8345 85.9554 67.8318 85.9564 67.8299C85.957 67.8289 85.9718 67.8004 86.0396 67.7542L84.9129 66.1018ZM83.9482 67.888C83.9482 68.3147 84.0556 68.7236 84.2354 69.1058L86.045 68.2542C85.9689 68.0924 85.9482 67.9733 85.9482 67.888H83.9482ZM84.2354 69.1058C84.3648 69.3809 84.4727 69.605 84.5578 69.7752L86.3466 68.8808C86.2718 68.731 86.1716 68.5231 86.045 68.2542L84.2354 69.1058ZM84.5578 69.7752C84.6616 69.9829 84.7834 70.1849 84.921 70.3815L86.5594 69.2345C86.473 69.1111 86.4028 68.9931 86.3466 68.8808L84.5578 69.7752ZM84.921 70.3815C85.0312 70.5389 85.1143 70.6598 85.1722 70.7467L86.8363 69.6373C86.7662 69.5322 86.6733 69.3971 86.5594 69.2345L84.921 70.3815ZM85.236 70.8322C85.2942 70.902 85.406 71.0476 85.5818 71.2874L87.1946 70.1046C87.0184 69.8644 86.8743 69.674 86.7724 69.5518L85.236 70.8322ZM84.6602 81.752C85.4538 81.752 86.0986 81.3648 86.5691 80.7767L85.0073 79.5273C84.8378 79.7392 84.7306 79.752 84.6602 79.752V81.752ZM86.5662 80.7803C87.0107 80.2299 87.2922 79.5909 87.2922 78.88H85.2922C85.2922 79.0331 85.2377 79.2421 85.0103 79.5237L86.5662 80.7803ZM87.2922 78.88C87.2922 78.3678 87.2382 77.8829 87.1018 77.4509L85.1946 78.0531C85.2502 78.2291 85.2922 78.4962 85.2922 78.88H87.2922ZM86.1482 76.752C85.3162 76.752 84.5166 76.9827 83.7609 77.409L84.7435 79.151C85.2359 78.8733 85.7002 78.752 86.1482 78.752V76.752ZM83.7609 77.409C82.992 77.8428 82.3162 78.5276 82.3162 79.528H84.3162C84.3162 79.5227 84.3126 79.5062 84.3502 79.456C84.3981 79.3921 84.5094 79.2831 84.7435 79.151L83.7609 77.409ZM82.3162 79.528C82.3162 80.1322 82.5437 80.6737 82.9691 81.0991L84.3833 79.6849C84.3287 79.6303 84.3162 79.5958 84.3162 79.528H82.3162ZM82.9691 81.0991C83.4373 81.5673 84.0426 81.752 84.6602 81.752V79.752C84.4458 79.752 84.3951 79.6967 84.3833 79.6849L82.9691 81.0991ZM94.9279 73.12L95.6204 73.8414L95.6206 73.8412L94.9279 73.12ZM101.384 72.064L101.991 71.269L101.384 72.064ZM101.696 75.88L100.899 75.2761L100.893 75.2839L100.887 75.2918L101.696 75.88ZM100.28 77.104L100.722 78.0009L100.73 77.9972L100.737 77.9933L100.28 77.104ZM97.1599 78.16L97.2839 79.1523L97.2973 79.1506L97.3107 79.1486L97.1599 78.16ZM96.5839 78.232L96.4599 77.2397L95.516 77.3577L95.5867 78.3063L96.5839 78.232ZM99.6559 80.2L99.2498 79.2862L99.6559 80.2ZM100.664 79.624L100.039 78.8431L100.039 78.8431L100.664 79.624ZM101.024 79.336L101.824 78.736L101.205 77.9106L100.399 78.5551L101.024 79.336ZM101.6 80.104L102.409 80.6922L102.843 80.0949L102.4 79.504L101.6 80.104ZM100.832 80.8L100.232 80L100.832 80.8ZM99.7519 81.52L100.235 82.3956L100.242 82.392L100.248 82.3882L99.7519 81.52ZM94.0879 81.112L93.3132 81.7444L94.0879 81.112ZM96.5599 77.056H95.5599V78.2479L96.7337 78.0408L96.5599 77.056ZM98.5039 76.024L97.7541 75.3624L98.5039 76.024ZM97.0399 74.176L96.0883 73.8686L96.0854 73.8777L97.0399 74.176ZM94.1279 77.848C94.1279 76.061 94.6559 74.7673 95.6204 73.8414L94.2354 72.3986C92.7999 73.7767 92.1279 75.635 92.1279 77.848H94.1279ZM95.6206 73.8412C96.6703 72.833 97.8045 72.368 99.0559 72.368V70.368C97.2353 70.368 95.6175 71.071 94.2352 72.3988L95.6206 73.8412ZM99.0559 72.368C99.8331 72.368 100.381 72.5566 100.777 72.859L101.991 71.269C101.171 70.6434 100.167 70.368 99.0559 70.368V72.368ZM100.777 72.859C101.13 73.1283 101.296 73.4546 101.296 73.936H103.296C103.296 72.8494 102.854 71.9277 101.991 71.269L100.777 72.859ZM101.296 73.936C101.296 74.5221 101.147 74.9487 100.899 75.2761L102.493 76.4839C103.045 75.7553 103.296 74.8859 103.296 73.936H101.296ZM100.887 75.2918C100.592 75.6982 100.238 76.0009 99.8226 76.2147L100.737 77.9933C101.442 77.6311 102.032 77.1178 102.505 76.4682L100.887 75.2918ZM99.8378 76.2071C98.7655 76.7356 97.825 77.047 97.0091 77.1714L97.3107 79.1486C98.3828 78.985 99.5223 78.5924 100.722 78.0009L99.8378 76.2071ZM97.0359 77.1677L96.4599 77.2397L96.7079 79.2243L97.2839 79.1523L97.0359 77.1677ZM95.5867 78.3063C95.6501 79.1581 95.8642 79.9569 96.3563 80.5577C96.8844 81.2024 97.6233 81.488 98.4319 81.488V79.488C98.1205 79.488 97.9914 79.3976 97.9035 79.2903C97.7796 79.1391 97.6297 78.8099 97.5811 78.1577L95.5867 78.3063ZM98.4319 81.488C98.9842 81.488 99.531 81.3498 100.062 81.1138L99.2498 79.2862C98.9168 79.4342 98.6476 79.488 98.4319 79.488V81.488ZM100.062 81.1138C100.535 80.9035 100.956 80.6709 101.289 80.4049L100.039 78.8431C99.8917 78.9611 99.6407 79.1125 99.2498 79.2862L100.062 81.1138ZM101.289 80.4049L101.649 80.1169L100.399 78.5551L100.039 78.8431L101.289 80.4049ZM100.224 79.936L100.8 80.704L102.4 79.504L101.824 78.736L100.224 79.936ZM100.791 79.5158C100.758 79.5612 100.609 79.7175 100.232 80L101.432 81.6C101.823 81.3064 102.186 80.9988 102.409 80.6922L100.791 79.5158ZM100.232 80C99.8736 80.2688 99.5484 80.4845 99.2558 80.6518L100.248 82.3882C100.627 82.1715 101.022 81.9072 101.432 81.6L100.232 80ZM99.2688 80.6444C98.495 81.0713 97.6463 81.288 96.7039 81.288V83.288C97.9696 83.288 99.1528 82.9927 100.235 82.3956L99.2688 80.6444ZM96.7039 81.288C95.8691 81.288 95.2938 81.0079 94.8626 80.4796L93.3132 81.7444C94.162 82.7841 95.3307 83.288 96.7039 83.288V81.288ZM94.8626 80.4796C94.4147 79.9309 94.1279 79.0954 94.1279 77.848H92.1279C92.1279 79.3846 92.4812 80.7251 93.3132 81.7444L94.8626 80.4796ZM96.7337 78.0408C97.7394 77.8633 98.6029 77.4232 99.2537 76.6856L97.7541 75.3624C97.4449 75.7128 97.0124 75.9607 96.3861 76.0712L96.7337 78.0408ZM99.2537 76.6856C99.9247 75.9253 100.224 74.9707 100.224 73.912H98.2239C98.2239 74.5813 98.0432 75.0347 97.7541 75.3624L99.2537 76.6856ZM100.224 73.912C100.224 73.4139 100.156 72.8752 99.8922 72.4302C99.5798 71.9031 99.0566 71.616 98.4559 71.616V73.616C98.4402 73.616 98.378 73.6115 98.3016 73.5686C98.2243 73.5251 98.1844 73.4713 98.1716 73.4498C98.1627 73.4347 98.1783 73.4551 98.1949 73.5388C98.2111 73.6209 98.2239 73.7424 98.2239 73.912H100.224ZM98.4559 71.616C97.1263 71.616 96.4402 72.7795 96.0883 73.8686L97.9915 74.4834C98.1376 74.0312 98.2841 73.7908 98.3864 73.6781C98.4325 73.6273 98.4583 73.6149 98.4592 73.6145C98.46 73.6141 98.4583 73.615 98.4552 73.6157C98.4521 73.6164 98.4518 73.616 98.4559 73.616V71.616ZM96.0854 73.8777C95.741 74.9798 95.5599 76.0412 95.5599 77.056H97.5599C97.5599 76.2788 97.6988 75.4202 97.9944 74.4743L96.0854 73.8777ZM109.962 72.064L109.475 72.9374L110.135 73.3054L110.669 72.7711L109.962 72.064ZM110.226 71.44V70.44H109.533L109.29 71.0889L110.226 71.44ZM113.25 72.112L114.207 72.4004L114.482 71.4878L113.584 71.1694L113.25 72.112ZM112.29 76.288L113.276 76.4524L113.277 76.4506L112.29 76.288ZM113.178 79.84L112.731 78.9456L113.178 79.84ZM113.466 79.696L114.355 79.2387L113.903 78.3594L113.019 78.8016L113.466 79.696ZM113.898 80.536L114.562 81.2834L115.142 80.7682L114.787 80.0787L113.898 80.536ZM113.322 81.016L112.697 80.2351L112.684 80.2457L112.671 80.2567L113.322 81.016ZM112.026 81.808L112.473 82.7024L112.482 82.698L112.491 82.6934L112.026 81.808ZM108.57 80.944L109.554 80.7682L109.243 79.0261L107.911 80.1914L108.57 80.944ZM103.698 81.328L102.945 81.9866L102.955 81.997L103.698 81.328ZM104.178 73.24L104.992 73.8212L104.995 73.8163L104.178 73.24ZM108.522 79.792L109.057 80.6368L109.495 80.3594L109.521 79.8416L108.522 79.792ZM109.65 73.096L110.61 73.3744L110.855 72.5286L110.047 72.1784L109.65 73.096ZM106.938 74.488L105.999 74.1441L105.996 74.1517L106.938 74.488ZM110.669 72.7711C110.761 72.6789 110.816 72.5873 110.832 72.5616C110.857 72.5206 110.877 72.4825 110.891 72.4542C110.919 72.3969 110.947 72.3339 110.973 72.2736C111.025 72.1506 111.089 71.9875 111.162 71.7911L109.29 71.0889C109.219 71.2765 109.167 71.4094 109.131 71.4944C109.122 71.5148 109.115 71.5307 109.11 71.5425C109.104 71.5547 109.102 71.5599 109.102 71.5598C109.102 71.5596 109.103 71.5567 109.106 71.5517C109.109 71.547 109.114 71.538 109.121 71.5259C109.128 71.5146 109.14 71.4948 109.158 71.4704C109.173 71.4488 109.206 71.4057 109.255 71.3569L110.669 72.7711ZM110.226 72.44C110.808 72.44 111.689 72.6196 112.916 73.0545L113.584 71.1694C112.283 70.7084 111.148 70.44 110.226 70.44V72.44ZM112.292 71.8236C111.879 73.1954 111.55 74.6295 111.303 76.1254L113.277 76.4506C113.51 75.0345 113.821 73.6846 114.207 72.4004L112.292 71.8236ZM111.303 76.1236C111.063 77.5654 110.93 78.6694 110.93 79.384H112.93C112.93 78.8506 113.037 77.8906 113.276 76.4524L111.303 76.1236ZM110.93 79.384C110.93 79.7048 110.945 80.0172 110.999 80.274C111.025 80.3944 111.075 80.5869 111.192 80.773C111.318 80.9723 111.618 81.296 112.122 81.296V79.296C112.318 79.296 112.497 79.3582 112.638 79.4543C112.769 79.5429 112.845 79.6439 112.883 79.705C112.953 79.8151 112.963 79.8936 112.956 79.862C112.946 79.8148 112.93 79.6712 112.93 79.384H110.93ZM112.122 81.296C112.329 81.296 112.511 81.232 112.563 81.2145C112.655 81.1832 112.755 81.1431 112.854 81.1001C113.056 81.0131 113.315 80.8895 113.625 80.7344L112.731 78.9456C112.433 79.0945 112.212 79.1989 112.061 79.2639C111.985 79.2969 111.94 79.3138 111.921 79.3205C111.911 79.3239 111.918 79.3208 111.939 79.3159C111.949 79.3135 112.02 79.296 112.122 79.296V81.296ZM113.625 80.7344L113.913 80.5904L113.019 78.8016L112.731 78.9456L113.625 80.7344ZM112.577 80.1533L113.009 80.9933L114.787 80.0787L114.355 79.2387L112.577 80.1533ZM113.233 79.7886C113.108 79.9004 112.931 80.0484 112.697 80.2351L113.947 81.7969C114.193 81.5996 114.4 81.4276 114.562 81.2834L113.233 79.7886ZM112.671 80.2567C112.542 80.3671 112.203 80.5857 111.561 80.9226L112.491 82.6934C113.129 82.3583 113.653 82.0489 113.973 81.7753L112.671 80.2567ZM111.579 80.9136C111.026 81.1901 110.605 81.288 110.298 81.288V83.288C111.014 83.288 111.746 83.0659 112.473 82.7024L111.579 80.9136ZM110.298 81.288C109.945 81.288 109.795 81.2084 109.736 81.1626C109.688 81.1253 109.602 81.0355 109.554 80.7682L107.585 81.1198C107.698 81.7485 107.98 82.3307 108.508 82.7414C109.025 83.1436 109.659 83.288 110.298 83.288V81.288ZM107.911 80.1914C106.961 81.0227 106.263 81.288 105.786 81.288V83.288C106.973 83.288 108.13 82.6573 109.228 81.6966L107.911 80.1914ZM105.786 81.288C105.271 81.288 104.839 81.1015 104.441 80.659L102.955 81.997C103.708 82.8345 104.669 83.288 105.786 83.288V81.288ZM104.45 80.6695C104.123 80.2953 103.858 79.5784 103.858 78.304H101.858C101.858 79.7816 102.153 81.0807 102.945 81.9865L104.45 80.6695ZM103.858 78.304C103.858 76.2846 104.274 74.8263 104.992 73.8212L103.364 72.6588C102.322 74.1177 101.858 76.0354 101.858 78.304H103.858ZM104.995 73.8163C105.735 72.7668 106.521 72.368 107.37 72.368V70.368C105.722 70.368 104.381 71.2172 103.361 72.6637L104.995 73.8163ZM107.37 72.368C108.085 72.368 108.782 72.551 109.475 72.9374L110.449 71.1906C109.478 70.649 108.447 70.368 107.37 70.368V72.368ZM107.226 81.248C107.87 81.248 108.489 80.9966 109.057 80.6368L107.987 78.9472C107.595 79.1954 107.35 79.248 107.226 79.248V81.248ZM109.521 79.8416C109.629 77.6645 109.992 75.5092 110.61 73.3744L108.689 72.8176C108.028 75.0988 107.639 77.4075 107.523 79.7424L109.521 79.8416ZM110.047 72.1784C109.504 71.9431 108.953 71.784 108.426 71.784V73.784C108.57 73.784 108.835 73.8329 109.252 74.0136L110.047 72.1784ZM108.426 71.784C107.766 71.784 107.244 72.1222 106.869 72.5522C106.506 72.9674 106.227 73.5221 105.999 74.1441L107.877 74.8319C108.065 74.3179 108.242 74.0206 108.375 73.8678C108.496 73.7298 108.51 73.784 108.426 73.784V71.784ZM105.996 74.1517C105.552 75.3939 105.338 76.7496 105.338 78.208H107.338C107.338 76.9464 107.523 75.8221 107.88 74.8243L105.996 74.1517ZM105.338 78.208C105.338 78.9298 105.412 79.6061 105.643 80.1371C105.763 80.4138 105.947 80.698 106.229 80.9145C106.526 81.1412 106.872 81.248 107.226 81.248V79.248C107.284 79.248 107.371 79.2698 107.445 79.3265C107.506 79.373 107.504 79.4022 107.477 79.3389C107.412 79.1899 107.338 78.8462 107.338 78.208H105.338Z" fill="#DCEBF6" mask="url(#path-13-outside-1_9_135)"/>
</svg>
